<?xml version="1.0" encoding="UTF-8" standalone="no"?>
<!-- Created with Inkscape (http://www.inkscape.org/) -->

<svg
   xmlns:dc="http://purl.org/dc/elements/1.1/"
   xmlns:cc="http://creativecommons.org/ns#"
   xmlns:rdf="http://www.w3.org/1999/02/22-rdf-syntax-ns#"
   xmlns:svg="http://www.w3.org/2000/svg"
   xmlns="http://www.w3.org/2000/svg"
   version="1.1"
   width="372.04724"
   height="524.40942"
   id="svg2">
  <defs
     id="defs4" />
  <metadata
     id="metadata7">
    <rdf:RDF>
      <cc:Work
         rdf:about="">
        <dc:format>image/svg+xml</dc:format>
        <dc:type
           rdf:resource="http://purl.org/dc/dcmitype/StillImage" />
        <dc:title></dc:title>
      </cc:Work>
    </rdf:RDF>
  </metadata>
  <g
     transform="translate(0,-527.95271)"
     id="layer1">
    <path
       d="m 190.95637,530.85537 c -6.45997,0.14461 -14.70365,0.99346 -27.50625,2.72813 -5.445,0.73776 -15.83082,2.13221 -23.0625,3.09375 -7.23177,0.96153 -14.83178,2.43371 -16.90313,3.2625 -4.43241,1.77352 -6.07086,4.52998 -8.94375,15.21562 -1.06461,3.96 -3.28599,12.2625 -4.95,18.45 -1.66401,6.1875 -4.36828,16.3125 -5.99062,22.5 -1.62243,6.1875 -4.697999,17.69106 -6.862499,25.56563 -4.21461,15.33335 -4.79435,20.91563 -2.50313,24.4125 1.36692,2.08613 1.3131,2.33048 -0.84375,4.89375 -2.58804,3.07576 -3.857669,10.26236 -2.86875,16.11562 0.4788,2.83383 1.48037,4.34715 4.58438,6.89063 5.009849,4.10517 5.127029,5.34126 0.39375,4.58437 -2.79009,-0.44615 -3.6,-0.29434 -3.6,0.70313 0,2.64997 1.20658,4.26854 4.47187,5.93437 1.84869,0.94317 6.012589,4.5718 9.253129,8.07188 4.90095,5.29354 6.48688,7.84249 9.36562,15.075 2.72538,6.84732 4.00572,8.98596 6.075,10.125 3.45447,1.90154 6.30527,5.80395 5.59688,7.65 -0.30879,0.80462 -1.66968,1.85781 -3.0375,2.33437 l -2.475,0.87188 0.28125,32.20312 c 0.26343,28.13924 0.14022,32.38099 -1.06875,33.38438 -0.7614,0.63184 -5.96732,2.08892 -11.55938,3.23437 -5.59206,1.14544 -11.213279,2.34178 -12.487499,2.67188 -1.476,0.38238 -2.65882,0.17069 -3.29062,-0.59063 -0.63441,-0.76441 -1.18539,-9.62054 -1.51875,-24.58125 -1.0431,-46.8153 -1.456114,-49.653 -10.125004,-68.76562 -4.28283,-9.44251 -12.85272,-17.18438 -19.0125,-17.18438 -4.14225,0 -9.822015,5.10537 -12.628125,11.33438 l -2.390625,5.31562 0,36 0,36 3.065625,5.31563 c 2.48175,4.30704 3.09762,6.39092 3.2625,11.025 0.22752,6.39693 1.749105,9.45523 5.709375,11.50312 1.42029,0.7345 2.8089,1.95788 3.09375,2.7 0.28476,0.74212 0.804465,16.57736 1.153125,35.18438 l 0.646875,33.83437 2.165625,1.6875 c 3.2355,2.54503 12.556845,5.25103 19.153125,5.56875 l 5.850004,0.28125 0,-8.94375 0,-8.97187 2.86875,-1.82813 c 3.48597,-2.21233 3.73027,-3.20625 0.75937,-3.20625 -3.67641,0 -4.3632,-2.65412 -3.7125,-14.31562 0.32013,-5.73801 0.54765,-12.56063 0.50625,-15.15938 -0.0778,-4.83629 1.05273,-6.03474 3.43125,-3.65625 0.81576,0.81576 1.56663,0.79513 3.2625,-0.1125 2.913569,-1.55927 5.034379,-0.65638 5.034379,2.16563 0,2.44582 0.84082,2.8998 2.44687,1.29375 1.97064,-1.97064 3.17124,0.15577 2.5875,4.55625 -0.30807,2.32225 -0.17284,8.0231 0.30938,12.68437 0.94581,9.14194 0.41386,11.08177 -2.55938,9.225 -1.23399,-0.77071 -1.91785,-0.78212 -2.67187,-0.0281 -1.80684,1.80685 -1.21194,3.5958 1.0125,3.0375 3.85461,-0.96746 4.45545,0.37266 4.44375,9.70313 l 0,8.69062 2.64375,0.53438 c 3.06747,0.61349 4.9396,3.25628 3.23437,4.55625 -0.60831,0.46378 -3.93187,1.33345 -7.39687,1.94062 -3.465,0.60718 -8.122499,1.71235 -10.349999,2.475 -2.96496,1.01515 -5.88155,1.24537 -10.884379,0.84375 -7.34436,-0.58959 -21.644235,-4.94517 -24.384375,-7.425 -0.91314,-0.82635 -1.92582,-1.22416 -2.25,-0.9 -0.32418,0.32416 -0.02038,4.53657 0.646875,9.36563 0.66735,4.82906 1.12266,11.00261 1.0125,13.725 -0.11007,2.72239 0.26307,5.83386 0.84375,6.91875 0.86652,1.61919 0.711225,2.70719 -0.871875,6.075 -1.90656,4.05614 -3.07359,4.96811 -4.1625,3.20625 -0.30807,-0.49852 -1.80828,-1.55328 -3.31875,-2.33438 -5.81994,-3.00961 -5.72418,3.02696 0.1125,7.03125 4.11939,2.82616 6.105555,5.52486 6.890625,9.45 0.49563,2.47807 0.22239,2.99652 -2.25,4.275 -2.9034,1.50141 -3.35817,2.69149 -1.9125,4.97813 0.6759,1.06916 1.07874,1.11497 1.96875,0.225 1.80306,-1.80312 2.695905,-1.30309 2.390625,1.35 -0.25461,2.213 -0.60318,2.46784 -3.31875,2.25 -2.05218,-0.16462 -3.420765,0.24101 -4.190625,1.29375 -0.96183,1.31549 -1.50453,1.40976 -3.4875,0.50625 -2.07612,-0.94591 -2.334375,-0.87019 -2.334375,0.61875 0,0.92642 0.6075,1.90882 1.35,2.19375 0.7425,0.28492 1.35,1.26493 1.35,2.19375 0,2.22677 -2.96784,4.86489 -4.725,4.19062 -0.76401,-0.29318 -1.670085,-0.10687 -1.996875,0.42188 -0.98235,1.58952 -4.288995,1.08974 -6.496875,-0.98438 -2.01078,-1.8891 -2.12652,-1.89735 -3.88125,-0.30937 -2.70693,2.44973 -2.4732,9.08772 0.45,13.04997 2.70873,3.67155 2.775555,4.79268 0.478125,6.4125 -0.96327,0.67914 -2.01897,2.82105 -2.3625,4.75317 -0.5796,3.25908 -0.490545,3.49676 1.265625,3.0375 1.07352,-0.28071 2.33334,0.0468 2.925,0.75936 1.38024,1.6631 3.54375,1.5869 3.54375,-0.1125 0,-2.67942 1.75626,-1.24302 3.6,2.925 2.47104,5.5862 2.11149,8.6936 -1.0125,9.0562 -1.85427,0.2153 -3.88242,-1.1551 -9.73125,-6.525 -4.07205,-3.7386 -7.764525,-6.80623 -8.184375,-6.80623 -0.41985,0 -1.015515,-0.7785 -1.321875,-1.74375 -0.60282,-1.89927 1.747215,-7.25625 3.178125,-7.25625 0.48231,0 0.871875,-0.67725 0.871875,-1.51875 0,-1.18998 -0.256905,-1.28997 -1.096875,-0.45 -0.594,0.594 -1.998945,1.06875 -3.121875,1.06875 -1.45269,0 -1.89054,0.40941 -1.51875,1.37817 0.67752,1.76571 -1.21572,4.02183 -3.375,4.02183 -0.92943,0 -1.6875,0.42336 -1.6875,0.92817 0,2.2023 4.71051,7.97066 9.9,12.12186 5.76549,4.6119 13.29696,10.7277 21.0375,17.1 5.39748,4.4435 13.33233,10.4305 18.1125,13.6406 1.98,1.3297 6.462675,4.8609 9.984375,7.875 3.5217,3.0141 9.1917,7.6557 12.6,10.2938 4.694489,3.6337 6.275119,4.4588 6.496879,3.375 0.16101,-0.7869 -0.51381,-2.7614 -1.51875,-4.3875 -1.56141,-2.5264 -1.94796,-5.295 -2.587504,-18.9 -0.78273,-16.6508 -1.435995,-19.1309 -4.528125,-17.1563 -1.08648,0.6939 -1.460295,1.926 -1.265625,4.1063 0.31743,3.5537 -1.24443,5.3618 -4.33125,5.0062 -2.80305,-0.3229 -3.36438,1.8115 -0.73125,2.8125 3.80745,1.4476 4.452345,2.9646 2.728125,6.6375 -0.84951,1.8096 -1.98675,3.3027 -2.53125,3.3188 -1.50309,0.044 -8.460045,-5.2217 -8.578125,-6.4969 -0.25452,-2.7493 0.371025,-4.9396 2.278125,-7.875 1.71918,-2.6461 2.239605,-5.3289 3.178125,-16.5094 1.09854,-13.08605 1.093275,-13.35605 -0.759375,-15.32813 -2.28402,-2.43117 -2.52954,-7.87671 -0.45,-9.95625 1.62099,-1.62099 1.097505,-4.10625 -0.871875,-4.10625 -1.83843,0 -5.967225,-5.1467 -5.990625,-7.48122 -0.01098,-1.07577 -0.803835,-2.98125 -1.771875,-4.21875 -3.33585,-4.26467 -1.64205,-6.03969 3.6,-3.79688 1.7325,0.74124 6.675705,1.84912 10.996875,2.475 10.124729,1.46648 15.542779,4.9588 18.140629,11.72813 3.940829,10.26807 5.266119,13.48926 5.878119,14.14689 0.35613,0.38259 2.14547,0.0855 3.96563,-0.675 2.41389,-1.00863 3.31884,-1.93482 3.31875,-3.40317 -2.7e-4,-3.66021 -4.33836,-16.10513 -6.35625,-18.2531 -2.64618,-2.81675 -1.7649,-5.253 1.63125,-4.52812 1.36161,0.29063 5.21041,0.6809 8.57812,0.87187 6.93486,0.39327 9.21609,1.82491 10.06875,6.27188 1.47132,7.67427 3.55356,14.09775 4.44375,13.78122 0.54117,-0.19233 0.89829,-1.11636 0.7875,-2.05308 -1.37331,-11.61155 -1.34914,-13.52898 0.19688,-15.07502 2.30094,-2.30096 4.56394,-1.52782 4.24687,1.4625 -0.19782,1.86514 0.11525,2.44688 1.37813,2.44688 0.90972,0 2.07153,-0.41215 2.5875,-0.92813 0.65088,-0.65086 1.34293,-0.46974 2.22187,0.59063 1.48266,1.79177 1.48446,9.93435 0,11.41872 -1.52307,1.52307 -1.23088,6.65019 0.42188,7.28442 2.43279,0.93348 5.78497,0.58887 5.82187,-0.59067 0.0195,-0.61875 0.12078,-6.5925 0.225,-13.27497 0.18486,-11.84899 0.2471,-12.15079 2.22188,-12.43125 1.92915,-0.27399 2.025,-0.67213 2.025,-8.40938 0,-7.36476 -0.16767,-8.15128 -1.8,-8.57812 -0.99,-0.2589 -1.8,-1.0904 -1.8,-1.82813 0,-0.76981 0.5256,-1.14504 1.2375,-0.87187 1.76418,0.67698 3.2625,-1.12099 3.2625,-3.9375 0,-3.65402 2.05474,-4.90338 6.10312,-3.7125 9.04212,2.65987 20.94728,4.06236 33.49688,3.96562 7.1775,-0.0553 13.74628,0.11515 14.59687,0.36563 0.8505,0.25047 2.37362,1.94087 3.40313,3.76875 1.1898,2.11235 3.74143,4.42617 7.00312,6.32812 2.82249,1.64581 7.27839,4.27831 9.9,5.85 14.44266,8.6583 20.57702,12.22169 30.34688,17.69063 5.94,3.32502 16.59636,9.58407 23.68125,13.92189 l 12.88125,7.90308 3.31875,-2.64375 c 3.69054,-2.94885 10.12369,-4.89582 13.80937,-4.1625 1.80162,0.35847 2.71638,0.009 3.6,-1.40625 0.89622,-1.43514 2.08404,-1.9125 4.95,-1.9125 3.71745,0 3.80336,-0.0549 4.07813,-3.375 0.23391,-2.82663 0.64683,-3.40398 2.53125,-3.65625 2.49777,-0.33435 4.73121,-1.96872 2.7,-1.96872 -0.68256,0 -2.61365,0.51405 -4.30313,1.12497 -2.71062,0.98019 -3.20976,0.92241 -4.275,-0.53433 -1.45359,-1.98789 -3.40744,-1.10825 -2.67187,1.20933 0.62757,1.97712 -0.99342,3.21696 -2.53125,1.94067 -0.60336,-0.50076 -2.67705,-1.0206 -4.6125,-1.18125 -4.5162,-0.37485 -5.02902,-2.02554 -1.2375,-3.96564 1.64025,-0.83937 4.44006,-2.68908 6.24375,-4.10625 1.80378,-1.41719 3.8781,-2.5875 4.6125,-2.5875 0.7344,0 1.85886,-0.6075 2.475,-1.35 0.61623,-0.7425 2.43504,-1.35 4.05,-1.35 2.16342,0 3.32244,-0.59491 4.44375,-2.30625 0.83709,-1.27749 1.31017,-2.89749 1.04062,-3.6 -1.09998,-2.86666 -8.41968,-0.64058 -10.63125,3.23437 -1.62045,2.83921 -4.30312,3.64814 -4.30312,1.29375 0,-0.76708 0.56371,-2.52381 1.26562,-3.88125 2.34819,-4.5408 5.03438,-13.08925 5.03438,-16.05937 0,-3.68179 -2.92901,-4.72435 -7.11563,-2.55938 -2.27394,1.17593 -2.78437,1.99532 -2.78437,4.41563 0,3.79453 0.78336,4.53641 2.8125,2.7 1.86408,-1.68694 4.3875,-1.06999 4.3875,1.06875 0,0.80371 -0.81,2.51017 -1.8,3.76875 -0.99,1.25858 -1.8,3.171 -1.8,4.275 0,2.90585 -3.36587,6.72594 -7.56563,8.60625 -4.33719,1.94182 -5.9463,1.10835 -5.9625,-3.09375 -0.006,-1.54815 -0.54607,-4.8375 -1.20937,-7.3125 -1.46781,-5.47686 -10.83888,-31.02694 -12.7125,-34.65 -0.74196,-1.43487 -1.35,-3.94981 -1.35,-5.59688 0,-1.88678 -0.68738,-3.5795 -1.82813,-4.55625 -1.49157,-1.27709 -1.6969,-2.18243 -1.20937,-5.23125 l 0.59062,-3.7125 -3.96562,0.64688 c -2.17584,0.35267 -6.62049,1.89374 -9.9,3.43125 -4.55688,2.13638 -6.51969,3.67139 -8.325,6.525 -1.29924,2.05367 -2.3625,4.73517 -2.3625,5.93437 0,1.19921 -0.65583,3.12322 -1.4625,4.275 -1.97766,2.82351 -9.21767,7.28438 -11.78438,7.28438 -2.99808,0 -2.65675,-2.70783 1.09688,-9.1125 4.30209,-7.34033 4.06611,-8.46721 -1.18125,-5.87813 -5.77494,2.84939 -35.06112,6.40734 -46.51875,5.65313 -6.90732,-0.45468 -13.11516,-2.02003 -14.85,-3.76875 -0.45072,-0.45436 -0.90549,-3.5853 -1.0125,-6.94688 -0.22167,-6.96217 0.82291,-8.93781 3.74062,-7.11562 1.3401,0.83686 2.27799,0.87827 3.65625,0.14062 2.19429,-1.17434 4.41563,-0.54903 4.41563,1.26563 0,0.71189 1.21023,4.02032 2.7,7.34062 2.26818,5.05528 2.92522,5.86014 4.02187,4.95 1.02564,-0.85121 1.27404,-3.2735 1.125,-11.1375 -0.10467,-5.52265 0.13442,-11.96437 0.53438,-14.31562 0.69957,-4.1123 0.63877,-4.275 -1.43438,-4.275 -2.83689,0 -3.45636,0.76824 -2.25,2.7 1.49679,2.39675 0.22077,4.5 -2.7,4.5 -3.41451,0 -4.90018,-1.50122 -3.57187,-3.62813 1.47888,-2.36807 -0.74561,-4.75589 -3.85313,-4.13437 -3.34071,0.66814 -8.07187,-2.35002 -8.07187,-5.14688 0,-2.5356 2.25067,-8.32406 3.57187,-9.14062 1.92798,-1.19153 4.50932,0.62684 5.48438,3.88125 1.15497,3.855 3.2661,7.05576 4.10625,6.21562 0.31923,-0.31924 0.058,-1.79267 -0.5625,-3.29062 -1.16586,-2.81461 -1.12442,-2.9103 3.12187,-8.69063 1.41111,-1.92089 -1.50417,-8.68662 -4.33125,-10.06875 -3.13101,-1.53077 -3.02728,-2.7462 0.30938,-3.90937 1.72386,-0.60094 2.7,-1.57886 2.7,-2.67188 0,-1.45055 -0.69318,-1.71562 -4.44375,-1.71562 -5.18427,0 -7.25625,-0.64629 -7.25625,-2.25 0,-1.50752 2.03778,-2.25 6.1875,-2.25 5.35275,0 7.61688,-3.74447 3.2625,-5.4 -2.98845,-1.13623 -2.8377,-2.34889 0.50625,-4.07813 4.19841,-2.17109 3.15301,-4.28832 -2.55938,-5.25937 -7.89102,-1.34141 -5.41057,-4.07074 3.06563,-3.375 1.49508,0.12272 2.05812,-0.49326 2.53125,-2.78438 0.33417,-1.61846 0.56497,-3.96562 0.53437,-5.20312 -0.0303,-1.2375 -0.0618,-3.32111 -0.0843,-4.64063 -0.0262,-1.56404 -0.86089,-2.93518 -2.39062,-3.9375 -1.98693,-1.30188 -2.12315,-1.6656 -0.92813,-2.33437 1.66392,-0.93119 23.48217,-2.56636 25.875,-1.94063 1.01502,0.26544 1.92879,-0.21357 2.41875,-1.2375 0.60345,-1.2614 0.91715,-24.65958 0.36563,-27.3375 -0.0557,-0.27062 -3.35246,-0.0392 -7.34063,0.53438 -8.12025,1.16788 -12.85245,0.61879 -13.275,-1.575 -0.37845,-1.96525 7.74041,-3.80364 13.80938,-3.12188 7.51671,0.84436 11.6239,1.66415 12.74062,2.55938 0.77148,0.61885 0.95693,5.05785 0.70313,16.0875 -0.19287,8.37994 -0.44172,26.88627 -0.5625,41.11875 l -0.225,25.875 2.64375,-0.0563 c 4.10373,-0.10181 18.89505,-2.92502 21.4875,-4.10625 2.90358,-1.32295 3.00838,-2.5875 0.19687,-2.5875 -1.17693,0 -2.64118,-0.57902 -3.23437,-1.29375 -0.77823,-0.93772 -2.25198,-1.16313 -5.2875,-0.81563 -4.72545,0.54096 -9.14063,-0.77815 -9.14063,-2.72812 0,-0.92303 1.47888,-1.40609 5.175,-1.71563 2.84625,-0.23836 6.31089,-0.73205 7.70625,-1.09687 2.17089,-0.56759 2.92082,-0.24031 5.14688,2.3625 1.43073,1.67297 2.59582,3.59183 2.61562,4.24687 0.0202,0.65505 0.72851,1.06005 1.54688,0.9 1.28511,-0.25132 1.53432,-2.1615 1.85625,-13.89375 l 0.36562,-13.58437 -2.39062,-2.84063 c -2.80593,-3.33462 -4.50486,-3.46636 -11.75625,-1.04062 -2.92311,0.97783 -6.03702,1.78785 -6.91875,1.8 -1.92231,0.0266 -3.06216,-2.42215 -1.74375,-3.74063 0.98811,-0.98804 9.25393,-3.32314 14.59687,-4.10625 4.22055,-0.61859 6.03729,-2.39084 6.75,-6.60937 0.32661,-1.93332 0.95427,-3.74257 1.40625,-4.02188 0.45189,-0.2793 0.84375,-4.69242 0.84375,-9.7875 0,-8.15385 -0.24448,-9.62705 -2.05312,-12.31875 -1.79487,-2.67116 -2.62368,-3.10397 -6.4125,-3.34687 -2.38572,-0.15295 -6.04692,0.32189 -8.15625,1.04062 -4.58001,1.56057 -7.22583,0.6452 -4.89375,-1.6875 0.79344,-0.79372 3.02094,-1.97775 4.95,-2.64375 l 3.51562,-1.20937 -2.55937,-0.64688 c -1.48023,-0.37435 -4.03308,-0.16764 -6.075,0.50625 -3.58614,1.18354 -5.09072,0.85758 -4.02188,-0.87187 0.32634,-0.52793 2.36232,-0.95625 4.5,-0.95625 2.28951,0 4.31478,-0.5284 4.95,-1.29375 1.45818,-1.75698 11.73902,-5.09069 14.99063,-4.86563 2.9979,0.2075 8.99293,-2.61845 11.55937,-5.45625 1.43631,-1.58815 2.38338,-1.82843 5.4,-1.37812 l 3.65625,0.53437 0.0562,-6.80629 c 0.0636,-7.80032 -0.57132,-8.32037 -5.175,-4.10625 -2.28546,2.09205 -2.70238,2.90892 -1.77187,3.4875 0.66753,0.415 1.07253,1.49699 0.9,2.39062 -0.22914,1.18775 -1.94445,1.9977 -6.35625,3.0375 -3.3192,0.78232 -6.5277,1.91527 -7.14375,2.53125 -1.62486,1.62489 -2.55938,1.38154 -2.55938,-0.675 0,-0.99 0.34385,-1.8 0.75938,-1.8 0.41553,0 1.20802,-1.0125 1.77187,-2.25 0.81099,-1.77995 1.68341,-2.25 4.19063,-2.25 1.74312,0 3.17812,-0.42191 3.17812,-0.95625 0,-0.61123 -1.00125,-0.76685 -2.7,-0.39375 -2.27727,0.50018 -2.7,0.32226 -2.7,-1.15312 0,-1.23505 1.14557,-2.17888 3.90938,-3.23438 2.15289,-0.8222 4.8397,-2.51558 5.99062,-3.74062 1.59219,-1.69483 3.01253,-2.22188 5.93438,-2.22188 3.93669,0 5.77071,-1.23242 4.1625,-2.84062 -1.34478,-1.34485 -10.47114,0.76502 -12.375,2.86875 -4.8591,5.36918 -16.81551,9.19185 -28.18125,9 -11.04498,-0.18645 -31.13379,1.55137 -36.16875,3.12187 -6.00885,1.87426 -12.57188,0.73868 -12.57188,-2.16562 0,-1.78429 4.05027,-3.95262 6.8625,-3.65625 3.76056,0.3963 4.7259,-0.0475 5.00625,-2.44688 l 0.28125,-2.44687 8.60625,0.25312 c 5.43483,0.16119 10.57572,-0.22615 13.95,-1.06875 2.93886,-0.73388 7.65221,-1.6123 10.49063,-1.94062 2.83842,-0.32831 5.39676,-0.97402 5.68125,-1.43438 0.50301,-0.81393 -1.61897,-1.11397 -9.02813,-1.2375 l -3.6,-0.0563 0.0563,-3.76875 c 0.0915,-4.62853 -1.60231,-5.62998 -5.14687,-3.00937 -1.36818,1.01158 -2.94786,1.82812 -3.4875,1.82812 -0.53955,0 -2.19344,0.63526 -3.68438,1.40625 -2.45421,1.26909 -3.99289,1.26909 -16.17187,0 -7.39899,-0.77099 -14.19939,-1.40625 -15.13125,-1.40625 -1.03329,0 -1.89437,-0.83264 -2.22188,-2.1375 -0.29538,-1.17677 -1.56924,-2.81347 -2.8125,-3.62812 -2.68029,-1.75618 -2.94093,-3.23438 -0.5625,-3.23438 1.71081,0 3.19032,-2.23235 2.3625,-3.57187 -0.24372,-0.39424 0.16299,-1.21642 0.9,-1.82813 0.7371,-0.61169 1.35,-1.68061 1.35,-2.3625 0,-1.89803 -3.41172,-1.471 -4.5,0.5625 -1.15317,2.15469 -2.97063,2.33246 -4.55625,0.42188 -0.9783,-1.17875 -0.85788,-1.48222 0.7875,-1.9125 1.07136,-0.28018 1.96875,-1.18103 1.96875,-1.99688 0,-0.81585 0.81,-2.99037 1.8,-4.8375 0.99,-1.84713 1.791,-4.48695 1.8,-5.85 0.0185,-3.32237 1.20924,-4.9565 3.2625,-4.55625 1.38645,0.27026 1.67963,1.16154 1.71563,4.95 0.0666,6.93977 0.91057,7.49961 11.10937,7.48125 4.76559,-0.009 12.3075,-0.40394 16.7625,-0.87187 4.455,-0.46792 10.7879,-0.92331 14.09063,-1.0125 10.69326,-0.28889 10.59349,-2.36034 -0.14063,-2.8125 l -5.85,-0.25313 0.25313,-3.09375 c 0.13986,-1.7132 0.63432,-3.38111 1.125,-3.68437 0.49068,-0.30327 4.22491,-1.04801 8.29687,-1.65938 11.8098,-1.77311 12.17799,-1.86718 10.2375,-2.95312 -0.90351,-0.50563 -3.10819,-0.64295 -4.92187,-0.30938 -1.81251,0.33338 -6.02438,0.78933 -9.36563,1.04063 -6.58089,0.49496 -7.73154,-0.36535 -3.825,-2.925 1.782,-1.16763 3.73757,-1.40828 9.02813,-1.06875 4.76595,0.30586 7.19176,0.10793 8.29687,-0.73125 0.85977,-0.65284 2.66589,-1.22175 3.99375,-1.2375 1.62504,-0.0193 2.58867,-0.6194 2.98125,-1.85625 0.40734,-1.28347 1.09017,-1.68999 2.25,-1.32188 1.02915,0.32667 1.96173,-0.0392 2.475,-0.95625 1.23147,-2.20049 9.09423,-3.46831 10.96875,-1.77187 0.80307,0.72677 2.67017,1.23229 4.13438,1.125 3.56535,-0.26121 3.54802,2.05474 -0.0281,3.76875 -1.48032,0.70949 -2.21229,1.4657 -1.63125,1.65937 0.58104,0.19368 4.05414,-1.04071 7.70625,-2.72812 8.40348,-3.88263 10.16833,-6.56372 11.05312,-16.70625 0.55998,-6.41944 0.43371,-7.45324 -1.18125,-9.50625 l -1.8,-2.30625 2.10933,-5.20313 c 2.40021,-5.90564 4.87247,-8.325 8.52188,-8.325 3.8502,0 5.35995,-2.11439 5.34375,-7.48125 -0.0191,-6.45784 -0.58995,-7.07896 -6.35625,-6.75 -4.79115,0.27333 -4.86536,0.31961 -5.37188,3.45938 -0.92169,5.71335 -2.80732,6.8748 -5.82187,3.54375 -1.44585,-1.59762 -1.56488,-2.42424 -0.75938,-6.35625 0.87651,-4.27875 0.82751,-4.60927 -1.32187,-6.3 -1.25739,-0.98902 -2.9021,-1.51783 -3.68438,-1.20938 -0.77616,0.30602 -4.55854,1.34025 -8.40937,2.30625 -3.85083,0.966 -8.30583,2.54362 -9.9,3.51563 -2.97324,1.81282 -9.15363,2.34902 -11.30625,0.98437 -0.79668,-0.50507 -1.32165,-3.4206 -1.575,-8.74687 -0.67743,-14.2394 -4.18919,-37.52003 -5.99063,-39.74063 -1.2789,-1.5764 -4.29372,-1.3992 -6.24375,0.36563 -2.01744,1.82569 -2.20666,11.50785 -0.59062,29.78437 0.69813,7.89541 0.77242,12.90892 0.19687,14.85 -0.47763,1.61174 -0.73458,3.60455 -0.5625,4.41563 0.27927,1.31625 5.63328,4.54951 9.225,5.56875 0.9639,0.27352 2.06523,4.07795 3.825,13.21875 1.36062,7.06755 2.934,13.39557 3.4875,14.0625 1.97127,2.37521 -0.69777,3.63997 -9.3375,4.3875 -4.57695,0.39601 -9.945,0.91291 -11.925,1.15312 -6.23214,0.75605 -36.64332,0.61942 -43.03125,-0.19687 -4.49874,-0.57489 -6.34711,-1.22112 -7.00312,-2.44688 -0.61965,-1.15783 -1.8954,-1.67832 -4.21875,-1.6875 -1.83879,-0.007 -4.35938,-0.59991 -5.59688,-1.32187 -1.23747,-0.72196 -3.57093,-1.93957 -5.175,-2.7 -3.36492,-1.59516 -5.78848,-6.42469 -5.48437,-10.94063 0.12465,-1.85074 -0.43034,-3.63773 -1.49063,-4.80937 -1.44099,-1.59227 -1.67157,-3.2394 -1.575,-11.08125 0.15741,-12.78947 1.37003,-25.19098 2.50313,-25.56563 0.52245,-0.17273 1.89139,1.32961 3.00937,3.31875 1.11798,1.98916 2.38316,3.6 2.84063,3.6 0.45747,0 1.10947,1.68082 1.43437,3.7125 0.3249,2.03168 1.52852,4.70063 2.67188,5.93438 1.14342,1.23374 2.52747,3.62814 3.09375,5.34375 0.84942,2.57392 0.78376,3.39872 -0.36563,4.66875 -1.8333,2.02583 -0.9225,3.26418 3.7125,5.11875 5.92947,2.37251 6.525,1.70378 6.525,-7.17188 0,-6.84736 -0.21969,-7.72841 -1.9125,-8.63437 -1.53549,-0.82173 -1.75896,-1.57053 -1.29375,-3.88125 1.67976,-8.34328 3.13655,-21.15141 2.67188,-23.31563 -0.32553,-1.51581 -0.12506,-2.475 0.47812,-2.475 2.39598,0 4.55625,-5.80185 4.55625,-12.2625 0.002,-4.25216 0.38376,-6.73507 1.18125,-7.39687 1.30518,-1.08321 11.25378,-0.89179 13.10625,0.25312 0.61794,0.38189 0.99662,1.54916 0.87188,2.61563 -0.12474,1.06647 0.58513,3.35812 1.54687,5.09062 0.96165,1.7325 1.94625,4.9725 2.19375,7.2 0.39231,3.53043 0.72581,4.09798 2.72813,4.33125 1.43082,0.16669 2.92684,-0.42719 3.96562,-1.575 1.38447,-1.52987 1.45463,-1.85625 0.30938,-1.85625 -0.75861,0 -1.89851,-0.59335 -2.50313,-1.32187 -0.88245,-1.06332 -0.73759,-1.90655 0.70313,-4.275 0.98721,-1.62273 2.07189,-5.07134 2.41875,-7.67813 0.43839,-3.2937 1.14907,-5.01877 2.33437,-5.65312 0.93807,-0.50207 7.07756,-1.51404 13.64063,-2.25 6.56316,-0.73597 13.86814,-1.79647 16.22812,-2.33438 2.35998,-0.5379 5.30906,-0.70598 6.55313,-0.39375 2.1537,0.54055 2.23825,0.78328 1.65937,5.14688 l -0.61875,4.58437 3.51563,-0.45 c 3.17223,-0.4017 13.93911,-2.60442 14.56875,-2.98125 0.63036,-0.37724 -5.12411,-20.35017 -6.44063,-22.35937 -1.50138,-2.29147 -9.46926,-5.20016 -17.2125,-6.27188 -1.98,-0.27404 -8.6625,-1.31506 -14.85,-2.30625 -6.1875,-0.99118 -14.49,-2.19407 -18.45,-2.67187 -3.96,-0.4778 -10.845,-1.30768 -15.3,-1.85625 -3.17487,-0.39094 -6.41777,-0.56489 -10.29375,-0.47813 z m -1.74375,3.17813 c 1.97922,-0.17509 3.46967,0.57792 4.21875,2.22187 1.23651,2.71384 2.54412,2.89073 3.31875,0.45 0.54846,-1.72789 1.67679,-2.28125 3.6,-1.77187 0.495,0.13111 4.3425,0.18081 8.55,0.1125 7.53057,-0.12224 14.52951,1.0545 22.5,3.76875 8.51202,2.89865 12.04924,3.33758 13.30312,1.6875 0.88956,-1.17057 1.49967,-1.29155 2.7,-0.53438 2.25756,1.42401 1.94882,3.54757 -0.47812,3.29063 -1.47429,-0.15609 -2.025,0.25465 -2.025,1.51875 0,2.53146 -1.31895,3.037 -10.8,4.1625 -7.6221,0.90481 -9.12285,0.8381 -13.66875,-0.64688 l -5.09063,-1.65937 -3.68437,2.41875 c -2.51739,1.64829 -3.34139,2.62849 -2.55938,3.06562 1.77813,0.99408 30.88355,-0.73319 38.95313,-2.30625 8.34624,-1.62699 14.31103,-1.83588 13.47187,-0.47812 -0.31275,0.50608 -2.87109,2.06852 -5.68125,3.45937 -4.08753,2.023 -7.2508,2.72898 -15.89062,3.57188 -29.21346,2.85004 -65.82438,1.24932 -61.875,-2.7 0.58563,-0.58566 6.10726,-1.05158 13.86562,-1.18125 15.15141,-0.25325 15.10223,-0.23749 13.35938,-1.35 -0.75267,-0.48047 -6.22953,-0.72775 -12.375,-0.53438 -9.56439,0.30096 -11.30198,0.15523 -13.02188,-1.2375 -1.90539,-1.54287 -1.92042,-1.69337 -0.45,-3.9375 3.43629,-5.24441 1.5665,-5.45614 -5.87812,-0.61875 -4.63309,3.01057 -6.29735,3.6 -10.15313,3.6 -6.18255,0 -13.02187,-2.34275 -13.02187,-4.47187 0,-1.25766 1.40377,-1.97136 6.32812,-3.17813 5.68017,-1.39199 6.49638,-1.42415 7.875,-0.19687 0.84591,0.75305 3.36938,1.516 5.59688,1.6875 3.80535,0.29308 4.01836,0.18802 3.79687,-1.82813 -0.3735,-3.39941 1.45341,-4.85996 5.2875,-4.24687 2.13543,0.34148 4.22753,0.0453 5.87813,-0.81563 1.48699,-0.77552 2.86246,-1.21682 4.05,-1.32187 z m 74.75625,19.88437 c 0.51372,-0.0769 0.75937,0.25313 0.5625,0.84375 -0.21654,0.64969 -0.92529,1.35844 -1.575,1.575 -0.675,0.225 -1.0125,-0.1125 -0.7875,-0.7875 0.21654,-0.64968 0.92529,-1.35843 1.575,-1.575 0.0843,-0.0281 0.15161,-0.0453 0.225,-0.0562 z m -54.5625,6.1875 c 0.71334,0 1.29375,0.405 1.29375,0.9 0,0.495 -0.837,0.9 -1.85625,0.9 -1.01925,0 -1.59966,-0.405 -1.29375,-0.9 0.30591,-0.495 1.143,-0.9 1.85625,-0.9 z m -10.71563,11.75625 c -0.53816,-0.0369 -0.59062,0.34745 -0.59062,1.29375 0,0.7425 0.5805,1.35 1.29375,1.35 1.90404,0 2.5195,-1.50525 0.87187,-2.1375 -0.75222,-0.28865 -1.2521,-0.48412 -1.575,-0.50625 z m 65.53125,5.34375 c -1.78952,-0.039 -3.58495,0.56728 -5.25937,1.88438 -2.80539,2.20672 -2.37285,3.51562 1.18125,3.51562 2.69685,0 8.15625,5.11557 8.15625,7.65 0,1.68453 -5.26644,7.65 -6.75,7.65 -0.63288,0 -1.91606,-2.30323 -2.84063,-5.11875 -2.03697,-6.20298 -3.93997,-7.34362 -3.90937,-2.3625 0.0248,4.07656 4.22266,12.27612 6.49687,12.7125 0.85473,0.164 2.58152,-0.72531 3.85313,-1.99687 1.27161,-1.27158 2.70562,-2.33438 3.17812,-2.33438 1.4238,0 0.9806,2.97255 -0.92812,6.10313 -0.9882,1.62072 -1.8,3.13947 -1.8,3.375 0,0.90188 2.40417,0.28097 6.3,-1.63125 l 4.05,-1.99688 0.25312,-6.94687 c 0.20943,-5.54428 -0.12537,-7.84384 -1.6875,-11.475 -2.45873,-5.71546 -6.3568,-8.94236 -10.29375,-9.02813 z m -110.10937,1.18125 c 1.12785,0.0743 1.6875,1.12542 1.6875,3.20625 0,1.36118 -0.55647,3.23112 -1.2375,4.1625 -1.17468,1.60643 -1.3194,1.54483 -2.7,-1.125 -1.56933,-3.03464 -1.24115,-5.15821 0.92812,-5.99062 0.50549,-0.19398 0.94593,-0.27792 1.32188,-0.25313 z m -7.7625,0.61875 c 0.7425,0 1.35,0.78297 1.35,1.74375 0,1.87851 -1.19916,3.07583 -2.1375,2.1375 -1.11258,-1.11259 -0.54738,-3.88125 0.7875,-3.88125 z m 6.80625,11.7 c 0.79668,0 2.66472,5.09781 2.08125,5.68125 -0.22833,0.2283 -0.95846,5.49867 -1.60313,11.72813 -0.64467,6.22946 -1.674,11.95067 -2.30625,12.7125 -1.54125,1.85712 -2.37343,1.73883 -3.96562,-0.53438 -1.10772,-1.58148 -1.89927,-1.79221 -4.55625,-1.29375 -3.46158,0.6494 -3.71484,0.41011 -2.30625,-2.22187 0.63585,-1.18816 0.6093,-2.98355 -0.1125,-5.85 -0.87984,-3.49423 -0.83313,-4.37002 0.3375,-5.54063 2.82591,-2.82589 4.44559,1.30344 2.50312,6.4125 -0.85428,2.24685 -0.36702,2.83317 2.08125,2.39063 0.42687,-0.0771 1.2731,0.54209 1.88438,1.37812 0.82566,1.1291 1.29672,1.23614 1.8,0.42188 0.39204,-0.6343 0.0229,-1.56769 -0.87188,-2.22188 -1.23705,-0.90456 -1.4076,-1.88961 -0.9,-4.89375 0.34893,-2.06514 0.99846,-3.98816 1.4625,-4.275 0.47484,-0.29343 0.58685,-2.46219 0.25313,-4.97812 -0.51678,-3.89515 -0.31955,-4.76698 1.49062,-6.69375 1.14282,-1.21651 2.36786,-2.22188 2.72813,-2.22188 z m 123.38437,35.49375 c 0.63108,0.0378 1.20812,0.17291 1.54688,0.39375 0.70002,0.45641 2.13763,5.60828 3.34687,11.925 1.8153,9.48319 1.9382,11.30867 0.87188,12.375 -1.64709,1.64714 -23.46552,7.2478 -24.8625,6.38438 -1.43118,-0.88449 -5.38736,-24.40687 -4.30313,-25.59375 0.44928,-0.49175 4.96026,-1.77008 10.0125,-2.8125 5.05233,-1.04243 10.20938,-2.148 11.44688,-2.475 0.61875,-0.16351 1.30954,-0.23467 1.94062,-0.19688 z m -127.575,4.58438 c 0.54443,0.0285 0.95817,0.46019 1.43438,1.35 0.54324,1.01499 0.73021,2.65682 0.42187,3.62812 -0.67329,2.12156 -4.19701,2.35158 -5.82187,0.39375 -1.25055,-1.50681 -0.18459,-3.40224 2.8125,-5.00625 0.46612,-0.24946 0.82647,-0.38275 1.15312,-0.36562 z m -11.41875,1.575 c 0.61652,-0.16027 1.4805,0.33512 1.82813,1.37812 0.19602,0.58782 -0.28494,1.06875 -1.06875,1.06875 -0.78372,0 -1.40625,-0.6225 -1.40625,-1.40625 0,-0.596 0.27696,-0.94447 0.64687,-1.04062 z m 101.53125,2.5875 c -1.13921,0.0346 -2.65098,0.15846 -4.66875,0.39375 l -7.05937,0.81562 0.1125,2.7 c 0.28359,6.17452 1.41682,19.00664 1.77187,20.1375 0.24768,0.78895 0.9257,0.9784 1.94063,0.53438 0.86211,-0.37715 4.2075,-1.16739 7.425,-1.74375 5.39856,-0.96706 5.8351,-1.21823 5.65312,-3.23438 -0.10845,-1.2016 -0.48199,-5.69156 -0.81562,-9.98437 -0.33354,-4.29281 -0.91386,-8.30094 -1.29375,-8.91563 -0.32923,-0.5327 -1.16693,-0.76088 -3.06563,-0.70312 z m -2.25,9.36562 c 0.53394,0.0158 1.00109,0.16044 1.35,0.45 0.70569,0.58544 1.05876,1.41734 0.7875,1.85625 -0.66852,1.08175 -5.76562,1.00547 -5.76562,-0.0843 0,-1.24407 2.02628,-2.26949 3.62812,-2.22187 z m -56.475,3.09375 c -2.80035,0 -2.59312,1.45806 0.42188,3.09375 3.09096,1.67686 3.825,1.73219 3.825,0.25313 0,-1.80295 -1.95665,-3.34688 -4.24688,-3.34688 z m -22.30312,1.8 c 0.7425,0 1.35,0.6075 1.35,1.35 0,0.7425 -0.6075,1.35 -1.35,1.35 -0.7425,0 -1.35,-0.6075 -1.35,-1.35 0,-0.7425 0.6075,-1.35 1.35,-1.35 z m 121.95,22.5 c 0.495,0 0.9,0.6075 0.9,1.35 0,0.7425 -0.405,1.35 -0.9,1.35 -0.495,0 -0.9,-0.6075 -0.9,-1.35 0,-0.7425 0.405,-1.35 0.9,-1.35 z m 15.46875,1.15313 c -1.13228,0.55078 -1.94634,15.2155 -1.09688,20.8125 0.34524,2.27405 0.33246,6.05812 -0.0562,8.40937 -0.3888,2.35125 -0.99738,10.65375 -1.35,18.45 l -0.64687,14.175 3.09375,0 c 4.13838,0 5.27557,1.36739 5.25937,6.27188 -0.017,5.04789 -0.37021,5.62212 -5.14687,8.04375 l -3.825,1.94062 -0.0281,6.04688 c -0.004,3.33119 -0.37242,15.76687 -0.84375,27.64687 -0.47133,11.88 -1.11015,29.02897 -1.40625,38.10938 -0.32076,9.83688 -0.20664,16.30468 0.28125,16.00312 0.94995,-0.58709 1.85161,-16.32187 2.50312,-43.67812 0.25245,-10.60162 0.78336,-19.84834 1.18125,-20.55938 0.39789,-0.71103 3.13142,-2.10952 6.04688,-3.09375 4.08123,-1.37783 5.65357,-1.56003 6.89062,-0.7875 1.2933,0.80767 1.70465,0.6936 2.10938,-0.59062 1.40445,-4.45651 2.38432,-5.53028 6.94687,-7.7625 8.84943,-4.32962 7.41159,-6.97466 -2.53125,-4.66875 -4.63392,1.07468 -6.38923,1.15518 -7.34062,0.36562 -1.03068,-0.8555 -1.2114,-6.3362 -1.0125,-31.275 0.21051,-26.38076 0.0613,-30.96283 -1.29375,-35.85937 -1.98999,-7.19126 -6.39968,-17.59258 -7.62188,-18 -0.0372,-0.0123 -0.076,-0.0177 -0.1125,0 z m -33.3,11.61562 c -0.62614,0.0239 -1.51533,0.0887 -2.7,0.16875 -2.62791,0.17739 -5.25704,0.78514 -5.82188,1.35 -1.53774,1.53767 4.55981,1.25521 7.90313,-0.36562 2.00839,-0.97366 2.49716,-1.22494 0.61875,-1.15313 z m -87.94688,6.55313 c 0.96257,0.009 2.27813,0.7319 2.27813,1.49062 0,0.44204 -0.81,0.7875 -1.8,0.7875 -1.75428,0 -2.34902,-0.94161 -1.26563,-2.025 0.18025,-0.18025 0.46664,-0.256 0.7875,-0.25312 z m 104.34375,7.95937 c -0.86648,0.0427 -4.04735,0.78664 -7.67812,1.82813 -4.14936,1.19026 -11.5875,2.88469 -16.5375,3.76875 -7.53705,1.34609 -9.4203,2.01935 -11.53125,4.1625 -2.28843,2.32346 -3.08507,2.55937 -8.74688,2.55937 -3.65994,0 -7.75233,-0.60316 -9.9,-1.4625 -3.04893,-1.21993 -4.52587,-1.29906 -8.80312,-0.47812 -10.39959,1.996 -17.37104,2.90765 -18.25313,2.3625 -1.79982,-1.11233 -3.51562,1.59324 -3.51562,5.54062 0,3.01327 0.33178,3.9375 1.43437,3.9375 0.79281,0 7.26687,0.47436 14.4,1.04063 11.53179,0.91543 13.16187,0.8794 14.56875,-0.39375 0.87021,-0.78754 5.20187,-2.73724 9.64688,-4.30313 4.44501,-1.56589 9.17919,-3.38879 10.51875,-4.07812 2.10096,-1.08116 3.00955,-1.07149 6.49687,0.1125 3.11121,1.05627 5.22576,1.18964 9.225,0.5625 2.85804,-0.44823 5.71442,-0.62928 6.32813,-0.39375 1.61235,0.6187 2.31948,3.57816 1.6875,6.94687 -0.45612,2.43128 -1.30361,3.28876 -5.09063,5.0625 -3.94551,1.84795 -6.21562,3.9358 -6.21562,5.7375 0,1.20878 4.44006,0.35826 6.46875,-1.2375 1.21959,-0.95932 3.29031,-2.00252 4.6125,-2.33437 2.38059,-0.59749 2.41875,-0.68175 2.41875,-8.63438 0,-6.30814 -0.28953,-8.14307 -1.35,-8.55 -2.86533,-1.09953 -1.2771,-3.51632 3.99375,-6.04687 4.6593,-2.23698 7.15819,-4.56991 6.04687,-5.68125 -0.0242,-0.0242 -0.10121,-0.0342 -0.225,-0.0281 z m -31.35937,20.61563 c -0.50772,8e-4 -1.16398,0.074 -1.96875,0.225 -4.61763,0.86627 -7.5375,2.10717 -7.5375,3.17812 0,1.34343 2.86803,1.05408 4.89375,-0.47812 0.96093,-0.72676 2.68218,-1.32188 3.825,-1.32188 1.14291,0 2.08125,-0.43428 2.08125,-0.98437 0,-0.41327 -0.44756,-0.62009 -1.29375,-0.61875 z M 55.196992,732.146 c 0.132276,-9e-4 0.286189,-0.004 0.45,0.0281 1.59678,0.30752 3.172905,6.27443 2.278125,8.60625 -0.47016,1.22512 -2.251935,1.51679 -3.234375,0.53437 -0.33003,-0.32999 -0.590625,-2.57745 -0.590625,-5.00625 0,-3.24319 0.170938,-4.15433 1.096875,-4.1625 z m 201.937498,5.48437 c -3.09538,0.11411 -8.63437,1.06736 -8.63437,1.71563 0,0.43117 2.32875,0.51745 5.175,0.19687 5.33304,-0.60068 6.26958,-0.90233 5.45625,-1.71562 -0.18929,-0.18929 -0.96508,-0.23491 -1.99688,-0.19688 z M 84.728242,755.71475 c 0.796269,-0.066 1.76985,0.22698 2.7,1.06875 1.34424,1.21651 1.527075,1.88749 0.759375,2.8125 -1.24614,1.50156 -2.80161,1.55773 -4.21875,0.14062 -1.94139,-1.94138 -0.992419,-3.87679 0.759375,-4.02187 z m 180.028128,7.62187 c -0.85773,0.0569 -2.04675,0.49742 -3.65625,1.29375 l -4.02188,1.96875 2.95313,0.59063 c 1.62027,0.33138 3.20035,0.86606 3.51562,1.18125 1.05228,1.0523 2.47973,-0.0279 2.78438,-2.10938 0.30296,-2.07047 -0.14545,-3.01975 -1.575,-2.925 z m -63.14063,5.03438 c 1.26779,-0.0888 2.83665,0.77004 2.50313,1.77187 -0.47115,1.41522 -3.0299,1.77538 -3.79688,0.53438 -0.34956,-0.56554 -0.24309,-1.41629 0.225,-1.88438 0.27329,-0.27327 0.64616,-0.39225 1.06875,-0.42187 z m 51.15938,6.975 c 4.00942,-0.0176 5.23255,1.19281 0.95625,2.925 -3.5433,1.43526 -11.0628,2.52156 -11.86875,1.71562 -1.55538,-1.55532 -0.14585,-2.91511 3.96562,-3.79687 2.72022,-0.58338 5.12441,-0.83578 6.94688,-0.84375 z m 5.70937,6.32812 c 1.12147,0.0237 1.66775,0.31772 2.25,0.9 1.97109,1.97107 0.12123,3.14307 -7.36875,4.66875 -11.97549,2.43938 -12.64185,2.48124 -13.8375,1.04063 -1.76976,-2.13251 -0.4851,-3.82212 3.2625,-4.275 1.89306,-0.22877 6.42317,-0.95659 10.04063,-1.60313 2.85205,-0.50971 4.53165,-0.75494 5.65312,-0.73125 z m -0.75937,8.18438 c 2.49835,-0.0615 3.375,0.70561 3.375,2.41875 0,1.93992 0.16083,1.87193 -10.8,4.07812 -8.38386,1.68754 -9.41571,1.69611 -10.8,0.0281 -1.65078,-1.98901 -0.41553,-4.07812 2.41875,-4.07812 1.36548,0 5.59854,-0.64696 9.39375,-1.4625 2.84178,-0.61067 4.91348,-0.94749 6.4125,-0.98438 z m -1.35,9.14062 c 2.63602,0.0824 3.12873,0.96266 2.75625,2.89688 -0.23409,1.21523 -1.43195,1.81514 -4.47188,2.25 -2.28528,0.32689 -4.9729,1.03034 -5.99062,1.575 -4.11372,2.20161 -8.26875,0.67974 -8.26875,-3.0375 0,-1.6917 0.85518,-1.98972 8.6625,-3.0375 3.39208,-0.45524 5.73089,-0.69636 7.3125,-0.64688 z m -49.725,6.35625 c -0.39758,0.0318 -0.87182,0.31808 -1.37813,0.92813 -0.7731,0.93156 -0.90481,2.53898 -0.42187,5.175 0.38457,2.09901 0.61533,6.83437 0.50625,10.54687 -0.10899,3.7125 0.0513,8.47125 0.36562,10.575 1.04895,7.02009 1.50953,3.94649 1.32188,-9 -0.10224,-7.05375 0.0967,-13.88025 0.45,-15.1875 0.51609,-1.90917 0.031,-3.10734 -0.84375,-3.0375 z m -99.39375,5.85 c 0.52425,0 0.69966,0.405 0.39375,0.9 -0.30591,0.495 -0.738,0.9 -0.95625,0.9 -0.21825,0 -0.39375,-0.405 -0.39375,-0.9 0,-0.495 0.43209,-0.9 0.95625,-0.9 z m -8.240629,0.30938 c 0.41058,-0.0355 0.80013,0.0688 1.124999,0.39375 0.53973,0.53975 0.74772,1.61485 0.45,2.39062 -0.676349,1.76254 -2.941559,1.85632 -3.599999,0.14063 -0.51468,-1.34133 0.79325,-2.81867 2.025,-2.925 z m 152.578129,5.99062 c 3.87396,0 4.43943,2.28245 0.9,3.62813 -3.52584,1.34054 -7.59375,1.09519 -7.59375,-0.45 0,-1.82017 2.86605,-3.17813 6.69375,-3.17813 z m -144.9,2.86875 c 0.11161,-0.004 0.22579,0.006 0.3375,0.0281 1.88622,0.36325 2.44719,3.08072 1.0125,4.80938 -1.422,1.7135 -3.22952,1.65922 -3.90938,-0.1125 -0.72225,-1.88211 0.88527,-4.66725 2.55938,-4.725 z m -12.374999,1.06875 c 0.25885,0.0261 0.51354,0.21022 0.73125,0.5625 0.35928,0.58127 0.24187,1.47375 -0.25313,1.96875 -0.59994,0.60001 -1.11145,0.53581 -1.54687,-0.16875 -0.35919,-0.58126 -0.27,-1.44562 0.225,-1.94062 0.29997,-0.30001 0.58489,-0.44801 0.84375,-0.42188 z M 253.64699,823.496 c 0.92861,-0.0247 1.45017,0.24804 2.025,0.81562 1.15713,1.14255 1.15713,1.45016 0,2.53125 -1.63197,1.52475 -10.28178,3.24565 -11.75625,2.33438 -2.13057,-1.31678 -0.0371,-3.24521 5.14688,-4.69688 2.29882,-0.64376 3.65576,-0.95976 4.58437,-0.98437 z m -64.09687,6.60937 c 0.7425,0 1.35,0.405 1.35,0.9 0,0.495 -0.6075,0.9 -1.35,0.9 -0.7425,0 -1.35,-0.405 -1.35,-0.9 0,-0.495 0.6075,-0.9 1.35,-0.9 z m 63.98437,0.50625 c 0.4051,0.002 0.74307,0.0481 0.98438,0.14063 2.19555,0.84249 1.32579,3.80063 -1.29375,4.3875 -1.36125,0.30497 -3.73986,0.87544 -5.2875,1.26562 -3.57282,0.90077 -5.6786,-0.24545 -4.35938,-2.3625 0.88854,-1.42593 7.12054,-3.44406 9.95625,-3.43125 z m -158.399999,7.90313 c -0.32273,-0.0543 -0.53437,0.14121 -0.53437,0.53437 0,0.52422 0.405,0.95625 0.9,0.95625 0.495,0 0.9,-0.17546 0.9,-0.39375 0,-0.21828 -0.405,-0.65032 -0.9,-0.95625 -0.12375,-0.0765 -0.25805,-0.12253 -0.36563,-0.14062 z m 195.187499,2.67187 c -1.00776,-0.0483 -1.23834,3.10622 -1.77187,18.84375 -0.39366,11.60856 -0.2601,16.875 0.39375,16.875 0.52281,0 0.96457,-0.10125 0.98437,-0.225 0.0202,-0.12375 0.2268,-4.275 0.45,-9.225 0.22329,-4.95 0.61268,-12.72391 0.87188,-17.26875 0.29502,-5.17223 0.126,-8.47528 -0.45,-8.83125 -0.17976,-0.11109 -0.33416,-0.16184 -0.47813,-0.16875 z m -83.7,7.34063 c -0.16278,-0.0607 -0.28125,0.45 -0.28125,1.37812 0,1.2375 0.20034,1.74375 0.45,1.125 0.24966,-0.61875 0.24966,-1.63125 0,-2.25 -0.0624,-0.15468 -0.11449,-0.23291 -0.16875,-0.25312 z m 95.23125,13.52812 c -0.7509,0.009 -1.15312,0.94447 -1.15312,2.72813 0,1.08824 -0.91125,3.13603 -2.025,4.55625 -1.79235,2.28554 -2.025,3.63494 -2.025,11.5875 l 0,8.97187 -2.7,0.9 c -1.485,0.49123 -2.81084,0.96098 -2.95313,1.04063 -0.14229,0.0797 0.11129,1.10041 0.59063,2.27812 0.47925,1.17772 1.11136,3.17981 1.37812,4.44375 0.37314,1.76778 1.61334,2.76658 5.45625,4.35938 5.37498,2.22782 6.01551,3.02192 8.6625,10.71562 0.95355,2.7714 2.37744,5.99283 3.15,7.17188 0.85752,1.30879 1.92807,1.94907 2.75625,1.63125 0.74619,-0.28632 2.11613,-0.53438 3.06563,-0.53438 2.32533,0 2.2077,-1.31004 -1.0125,-10.20937 -2.32398,-6.42258 -3.19176,-7.78077 -5.45625,-8.71875 -4.26258,-1.76562 -7.0875,-4.42303 -7.0875,-6.6375 0,-3.44421 5.34915,-7.01673 10.74375,-7.17188 3.09735,-0.0891 3.21471,-0.19772 3.4875,-3.99375 0.26127,-3.634 0.13945,-3.86155 -1.65938,-3.29062 -3.13011,0.99344 -6.27574,-2.57533 -5.65312,-6.4125 0.56367,-3.47308 0.23323,-3.66279 -2.95313,-1.575 -2.03958,1.33642 -2.42019,1.34849 -3.65625,0.1125 -1.23597,-1.23599 -1.22814,-1.65055 0.0563,-4.13438 1.7487,-3.38148 1.82835,-5.92558 0.225,-7.25625 -0.4678,-0.38824 -0.89618,-0.56675 -1.2375,-0.5625 z m -40.8375,5.93438 c -1.01574,0.0751 -2.63173,0.65691 -5.175,1.65937 -2.4354,0.95994 -7.63704,2.35413 -11.53125,3.09375 -10.28169,1.95276 -10.20937,1.9311 -10.20937,6.58125 0,2.20708 0.36175,4.69246 0.81562,5.54063 0.77994,1.45735 0.10535,8.99629 -1.32187,14.76562 -0.33453,1.353 -0.37247,3.07425 -0.0843,3.825 0.28809,0.75076 1.15452,1.35 1.9125,1.35 1.55142,0 1.84936,-1.4025 0.47812,-2.25 -0.495,-0.30593 -0.9,-1.34546 -0.9,-2.30625 0,-1.80398 2.01888,-2.04603 18,-2.16562 3.49902,-0.0262 4.08366,-0.28234 4.33125,-2.025 0.15759,-1.10941 1.15898,-2.63052 2.22188,-3.375 1.67382,-1.17239 1.95313,-2.30816 2.05312,-8.35313 0.0635,-3.83862 0.36342,-9.10125 0.675,-11.7 0.41231,-3.43929 0.42728,-4.76567 -1.26562,-4.64062 z m -13.5,7.17187 c 1.9994,-0.004 4.58438,1.95823 4.58438,4.44375 0,0.92129 0.81,1.93579 1.8,2.25 0.99,0.31422 1.8,1.14711 1.8,1.85625 0,1.65753 -1.44986,1.51092 -5.59688,-0.59062 -3.68658,-1.86826 -5.50143,-4.41146 -4.66875,-6.58125 0.36796,-0.95891 1.17243,-1.37651 2.08125,-1.37813 z m -23.87812,2.10938 c -1.73832,0.0669 -5.7375,2.23455 -5.7375,3.31875 0,0.50754 -1.4175,1.49798 -3.15,2.22187 -3.58794,1.49912 -4.10756,4.03323 -1.77188,8.55 1.92663,3.72571 3.48503,3.43638 2.84063,-0.53437 -0.56385,-3.47487 0.0285,-4.33114 6.01875,-8.52188 3.22038,-2.25301 4.02799,-3.9099 2.39062,-4.92187 -0.13777,-0.0851 -0.3423,-0.12205 -0.59062,-0.1125 z m -44.8875,1.43437 c 0.9255,0.0796 1.8,1.38405 1.8,3.6 0,2.26303 -0.43263,3.21125 -1.575,3.43125 -1.9395,0.37352 -2.8823,-1.75812 -2.10938,-4.8375 0.39442,-1.57157 1.16454,-2.2556 1.88438,-2.19375 z m 122.82187,5.9625 c 0.20086,-0.023 0.40194,-0.005 0.5625,0.0562 1.54737,0.59379 1.64646,4.0348 0.16875,5.5125 -0.594,0.594 -1.30612,1.06875 -1.60312,1.06875 -0.85572,0 -2.7,-2.07591 -2.7,-3.0375 0,-1.39869 2.16584,-3.43877 3.57187,-3.6 z m -53.55,2.16563 c 1.07178,-0.11981 2.27121,0.26298 3.15,1.32187 0.61101,0.73619 0.87791,1.95119 0.59063,2.7 -0.73512,1.91554 -4.83174,1.69829 -5.90625,-0.30937 -1.0457,-1.95389 0.37931,-3.51282 2.16562,-3.7125 z m -135.75937,1.96875 c 0.53895,-0.0297 0.97947,0.10758 1.26562,0.39375 1.01079,1.01075 1.48365,37.31539 0.50625,38.89687 -1.56789,2.53695 -5.01142,0.0214 -6.55312,-4.78125 -1.10619,-3.44599 -2.61473,-3.87334 -3.34688,-0.95625 -0.7407,2.95125 -4.398789,4.80744 -6.328119,3.20625 -1.19052,-0.98802 -1.11893,-1.52968 0.59062,-4.5 1.738259,-3.02024 1.796129,-3.67292 0.73125,-6.24375 -1.57815,-3.80981 -3.07372,-3.1029 -3.62812,1.6875 -0.50526,4.36651 -2.76404,6.60165 -4.69688,4.66875 -1.356749,-1.35672 -2.448268,-15.66166 -1.687499,-22.19062 l 0.534375,-4.5 4.050004,-0.59063 c 2.2275,-0.32816 5.265,-1.23746 6.749999,-2.025 1.485,-0.78753 3.78072,-1.43167 5.11875,-1.43437 1.33794,-0.003 3.4789,-0.48818 4.75312,-1.06875 0.75402,-0.34357 1.40167,-0.53277 1.94063,-0.5625 z m 67.3875,3.40312 c 0.7425,0 1.35,0.78297 1.35,1.74375 0,1.87851 -1.19916,3.07583 -2.1375,2.1375 -1.11258,-1.11259 -0.54738,-3.88125 0.7875,-3.88125 z m 97.59375,6.44063 c 2.42299,0.10214 2.73316,1.68605 1.35,5.70937 -0.6615,1.9239 -0.93366,3.90612 -0.61875,4.41563 0.31491,0.5095 0.64804,3.16551 0.75937,5.90625 0.11133,2.74073 0.60017,6.80062 1.09688,9.02812 0.56286,2.5241 0.61371,5.65956 0.1125,8.325 -1.20546,6.41075 -0.003,8.775 4.47187,8.775 5.3118,0 5.41265,1.56616 0.42188,5.9625 -3.75597,3.30852 -4.82985,3.80054 -7.25625,3.375 -2.36556,-0.41486 -3.08831,-0.11187 -4.35938,1.82813 -2.1375,3.2622 -3.79629,2.91106 -4.89375,-1.04063 -1.29573,-4.66558 -1.17918,-5.42268 0.7875,-6.04687 1.55655,-0.49405 1.74303,-1.69695 2.025,-13.02188 0.27009,-10.85132 0.52214,-12.70949 2.05313,-14.4 2.50695,-2.76806 2.64393,-9.02335 0.225,-10.96875 -1.56132,-1.25565 -1.71923,-1.92209 -0.98438,-4.5 0.71082,-2.49383 1.36377,-3.06526 3.65625,-3.29062 0.43394,-0.0427 0.80699,-0.0708 1.15313,-0.0563 z m -97.79063,1.94062 c 1.02559,-0.2355 1.54956,2.77656 0.61875,5.59688 -0.56664,1.71699 -1.31332,3.12187 -1.65937,3.12187 -0.88767,0 -0.68027,-6.49061 0.25312,-7.9875 0.27548,-0.44187 0.55083,-0.6769 0.7875,-0.73125 z m 64.35,10.63125 c 0.43872,0.006 0.84096,0.19409 1.18125,0.53438 0.78066,0.78058 0.54131,1.71054 -0.98437,3.85312 -1.77993,2.49968 -1.90526,3.13165 -0.87188,5.0625 1.52055,2.84122 0.77931,3.48591 -6.01875,5.23125 -6.78042,1.7408 -7.03246,1.74345 -8.40937,0.0843 -0.92133,-1.11014 -0.62028,-1.60375 1.8,-2.925 4.39497,-2.39933 7.92256,-5.50563 9.19687,-8.1 1.15182,-2.34504 2.7901,-3.75999 4.10625,-3.74062 z m -102.68437,2.67188 c 1.34036,0.0998 2.04661,1.07451 1.54687,3.06562 -0.41841,1.66727 0.0526,3.08978 1.77188,5.34375 1.2924,1.69445 2.3625,3.75547 2.3625,4.55625 0,1.60523 -3.98556,3.51787 -10.125,4.89375 -2.18844,0.49044 -4.55648,1.11905 -5.25938,1.37813 -4.73697,1.74582 -4.40937,-6.80905 0.50625,-13.24688 2.97888,-3.90133 6.96293,-6.15703 9.19688,-5.99062 z m 147.29062,0.1125 c 0.31604,-0.0475 0.63096,-0.002 0.92813,0.1125 1.56591,0.60088 1.84,6.03955 0.70312,14.48437 -0.56232,4.17652 -1.72597,5.8397 -3.12187,4.44375 -0.90675,-0.90671 -0.73652,-16.75091 0.19687,-18.225 0.27338,-0.43182 0.76703,-0.73644 1.29375,-0.81562 z M 79.637617,931.271 c 3.852862,-0.15176 9.99036,1.86459 13.218754,4.78125 l 3.375,3.00937 3.23437,-1.54687 c 3.089519,-1.47329 3.330859,-1.47499 4.809379,0.0281 1.4778,1.50242 1.45386,1.66568 -0.5625,3.31875 -1.16856,0.95807 -3.03345,1.74375 -4.162499,1.74375 -1.4877,0 -2.2226,0.68486 -2.67188,2.475 -0.34092,1.35848 -1.05921,2.97848 -1.575,3.6 -1.2123,1.46112 -4.27437,1.45924 -4.3875,0 -0.0484,-0.61875 -0.0293,-2.64375 0.0562,-4.5 0.11493,-2.4858 -0.20344,-3.375 -1.209374,-3.375 -0.75114,0 -1.60659,0.405 -1.9125,0.9 -1.01682,1.64533 -2.669355,0.85383 -7.621875,-3.65625 -4.45437,-4.05643 -4.76676,-4.59891 -3.4875,-5.87813 0.577102,-0.5771 1.612587,-0.84941 2.896875,-0.9 z m 55.068753,5.31562 c 1.44888,-0.013 2.70108,0.81881 2.89687,2.50313 0.14877,1.27986 -0.25623,2.7467 -0.9,3.2625 -4.22883,3.38813 -8.48218,1.13252 -6.04687,-3.20625 0.95116,-1.69458 2.60111,-2.54642 4.05,-2.55938 z M 50.415742,941.846 c -1.201623,-0.11478 -2.615625,0.82285 -2.615625,2.08125 0,1.12681 0.392265,1.16864 2.278125,0.30937 1.45287,-0.66201 1.95813,-1.33248 1.40625,-1.88437 -0.293738,-0.29373 -0.66821,-0.46799 -1.06875,-0.50625 z m -9.703125,8.85937 c -1.30086,0 -3.014865,2.56173 -2.390625,3.57188 1.125,1.82022 3.178125,0.9628 3.178125,-1.32188 0,-1.2375 -0.35316,-2.25 -0.7875,-2.25 z m 18.196875,1.9125 c 2.80631,-0.14321 5.225709,1.64466 4.921875,3.76875 -0.34929,2.44248 -2.23803,2.7747 -5.5125,0.98438 -2.94642,-1.61114 -2.95434,-4.27456 0,-4.69688 0.189793,-0.0271 0.403537,-0.0467 0.590625,-0.0562 z m 14.23125,6.21563 c -0.884441,0.0697 -0.47862,0.89811 1.35,2.475 1.56303,1.34794 3.10473,3.35812 3.43125,4.47187 0.40788,1.39151 1.28862,2.02502 2.8125,2.02502 2.59272,0 3.743775,2.14848 2.165625,4.05 -0.60597,0.7299 -0.86571,1.9944 -0.5625,2.78433 1.02312,2.66625 2.79612,0.70182 3.6,-3.96558 0.97542,-5.66336 0.224235,-6.80696 -6.440625,-9.75939 -3.298185,-1.46104 -5.47181,-2.15098 -6.35625,-2.08125 z m 210.515628,0.42187 3.09375,3.6 c 1.70658,1.98 3.11287,4.27736 3.12187,5.0906 0.007,0.81333 -0.56943,1.69083 -1.29375,1.96875 -2.03103,0.7794 -4.9887,-3.6355 -4.95,-7.39685 l 0.0281,-3.2625 z m -228.403128,1.43438 c 4.8942,-0.1284 8.548875,2.10255 10.659375,6.49689 0.99693,2.07576 2.808045,5.59125 4.021875,7.81875 1.88352,3.45636 2.130255,4.90743 1.771875,9.9 -0.23103,3.21753 -0.4203,6.55873 -0.45,7.42503 -0.09621,2.8367 -2.80782,1.6636 -4.1625,-1.8 -1.65285,-4.22598 -6.595515,-13.72818 -8.071875,-15.52503 -0.61002,-0.7425 -1.417005,-2.2968 -1.771875,-3.45942 -0.43632,-1.42929 -2.2392,-2.80251 -5.56875,-4.275 -7.4034,-3.2741 -5.748525,-6.33671 3.571875,-6.58122 z m 269.690628,0 c -0.29346,0.0481 -0.55229,0.33823 -0.87188,0.84375 -0.46683,0.73836 -0.86287,1.63633 -0.87187,2.025 -0.007,0.38866 0.84118,0.2489 1.88437,-0.30938 1.42839,-0.76444 1.65074,-1.2462 0.87188,-2.025 -0.38939,-0.3894 -0.71905,-0.58243 -1.0125,-0.53437 z m 24.8625,0.81562 c -0.77166,0 -1.40625,0.405 -1.40625,0.9 0,0.495 0.378,0.9 0.84375,0.9 0.46575,0 1.10034,-0.405 1.40625,-0.9 0.30591,-0.495 -0.072,-0.9 -0.84375,-0.9 z m -54.36563,5.20313 c 3.10827,-0.0921 7.40942,0.33199 8.94375,1.15314 1.89477,1.01403 2.04759,1.61991 0.9,3.43125 -0.42723,0.67419 -2.53368,1.55016 -4.66875,1.94058 -3.59154,0.65682 -4.07263,0.51003 -6.44062,-2.025 -1.40778,-1.50696 -2.38788,-3.19293 -2.19375,-3.74058 0.16223,-0.45759 1.59441,-0.70416 3.45937,-0.75939 z m -267.384373,1.09689 c -0.52416,0 -0.95625,0.405 -0.95625,0.9 0,0.495 0.1755,0.9 0.39375,0.9 0.21825,0 0.65034,-0.405 0.95625,-0.9 0.30591,-0.495 0.1305,-0.9 -0.39375,-0.9 z m 21.009375,5.76558 c 0.425224,0.01 0.86805,0.38799 1.096875,0.98442 0.75978,1.97991 -0.07043,2.58822 -1.378125,1.0125 -0.7362,-0.88704 -0.793035,-1.48113 -0.140625,-1.88442 0.130635,-0.081 0.280133,-0.11574 0.421875,-0.1125 z m 100.743748,12.54375 c -1.67761,-0.0207 -2.88634,0.9009 -3.90937,2.8125 -1.23804,2.3132 -4.75794,3.1451 -5.85,1.3782 -0.88299,-1.4287 -4.05,-1.0284 -4.05,0.5062 0,1.752 3.24103,8.1764 4.52812,8.9719 0.53262,0.32918 1.36391,1.59168 1.82813,2.81248 0.54684,1.4384 2.41911,2.9153 5.34375,4.1906 3.73752,1.6297 4.44757,2.3149 4.07812,3.8813 -0.24534,1.0402 -0.1804,2.1539 0.14063,2.475 1.67895,1.6789 3.88125,-0.8364 3.88125,-4.4157 0,-2.2705 -0.65673,-3.2241 -3.375,-4.9781 -5.15601,-3.327 -5.02484,-9.84368 0.19687,-9.84368 2.76165,0 14.2407,8.25138 15.58125,11.19368 0.60327,1.3239 1.09688,3.8033 1.09688,5.5125 0,3.0405 1.08643,4.0657 2.27812,2.1375 0.32913,-0.5324 0.3375,-3.1766 0,-5.8781 -0.54405,-4.3542 -1.15974,-5.4495 -5.2875,-9.61878 -2.56104,-2.5867 -6.94354,-6.2713 -9.75937,-8.1843 -2.88383,-1.9593 -5.04427,-2.93268 -6.72188,-2.9532 z m -62.915623,3.2907 c -1.21473,0 -1.405845,0.5753 -0.928125,3.1218 0.40905,2.1808 0.149265,3.8135 -0.871875,5.3719 -0.80469,1.2288 -1.18008,2.69018 -0.84375,3.23438 0.33624,0.5442 1.289205,0.8594 2.109375,0.7031 2.22039,-0.4232 2.736675,-12.43118 0.534375,-12.43118 z m 29.193753,0.8718 c -1.19126,-0.012 -2.38733,0.3881 -3.88125,1.0688 -1.25127,0.5701 -2.48832,1.7432 -2.75625,2.5875 -0.67671,2.1321 4.31433,12.79528 6.6375,14.17498 2.14632,1.2747 2.41569,3.0235 0.84375,5.5406 -0.82782,1.3255 -0.81554,2.5658 0.0843,5.5969 1.45872,4.9131 2.48323,6.1594 5.03437,6.1594 1.11627,0 2.53377,0.6075 3.15,1.35 1.56384,1.8842 -0.1611,3.7816 -4.5,4.95 -1.86462,0.5021 -3.88674,1.5392 -4.5,2.2781 -0.61335,0.7389 -2.43814,1.3219 -4.02187,1.3219 -3.39822,0 -11.02617,2.4617 -11.86875,3.825 -0.399599,0.6466 0.6259,0.7737 3.17812,0.3656 2.92275,-0.4674 3.86811,-0.301 4.275,0.7594 0.65763,1.7137 2.95497,1.6936 5.23125,-0.028 0.96597,-0.7306 3.65814,-1.3219 6.01875,-1.3219 2.34819,0 5.41278,-0.4572 6.80625,-1.0406 1.39347,-0.5836 4.96125,-1.5768 7.93125,-2.1938 8.65503,-1.7978 19.37799,-5.927 25.0875,-9.675 2.91024,-1.9103 7.06149,-4.2742 9.225,-5.2312 5.20467,-2.3023 5.04254,-3.6188 -0.25312,-2.025 -5.73795,1.7268 -7.77141,1.6269 -18,-1.0125 -11.94129,-3.0814 -14.83808,-4.0948 -16.95938,-5.9344 -0.99,-0.8585 -3.57921,-1.962 -5.7375,-2.4469 -6.72372,-1.5104 -12.5883,-9.1243 -9.45,-12.26248 0.74961,-0.7496 1.51619,-1.3781 1.71563,-1.3781 0.43515,0 13.08811,10.77118 14.37187,12.23438 1.04301,1.1886 9.26541,3.5596 9.95625,2.8687 0.25587,-0.2558 -1.88428,-1.7891 -4.75312,-3.4031 -2.86875,-1.6141 -8.46554,-6.1217 -12.45938,-10.01248 -5.23617,-5.1013 -7.78548,-7.0902 -10.40625,-7.1156 z m -55.237503,21.51568 c 0.47025,0 1.00395,0.4241 1.18125,0.9562 0.17739,0.5321 -0.35622,0.9563 -1.18125,0.9563 -0.82503,0 -1.35864,-0.4242 -1.18125,-0.9563 0.17739,-0.5321 0.711,-0.9562 1.18125,-0.9562 z m 102.993753,1.0125 c -1.74699,0 -2.28308,0.9794 -1.15313,2.1093 0.73026,0.7304 0.71793,0.7305 2.475,0.056 1.83177,-0.7029 0.94172,-2.1656 -1.32187,-2.1656 z m -38.10938,3.8812 c 0.39893,-0.022 0.80357,0.04 1.20938,0.1688 2.18853,0.6946 3.98182,3.683 3.29062,5.4843 -0.96273,2.5089 -7.73437,0.4382 -7.73437,-2.3625 0,-1.7952 1.50571,-3.1965 3.23437,-3.2906 z"
       id="path3100"
       style="fill:#6e6e6e" />
  </g>
</svg>
