<?xml version="1.0" encoding="UTF-8" standalone="no"?>
<!-- Created with Inkscape (http://www.inkscape.org/) -->

<svg
   xmlns:dc="http://purl.org/dc/elements/1.1/"
   xmlns:cc="http://creativecommons.org/ns#"
   xmlns:rdf="http://www.w3.org/1999/02/22-rdf-syntax-ns#"
   xmlns:svg="http://www.w3.org/2000/svg"
   xmlns="http://www.w3.org/2000/svg"
   version="1.1"
   width="150"
   height="150"
   id="svg2">
  <defs
     id="defs4" />
  <metadata
     id="metadata7">
    <rdf:RDF>
      <cc:Work
         rdf:about="">
        <dc:format>image/svg+xml</dc:format>
        <dc:type
           rdf:resource="http://purl.org/dc/dcmitype/StillImage" />
        <dc:title></dc:title>
      </cc:Work>
    </rdf:RDF>
  </metadata>
  <g
     transform="translate(0,-902.36218)"
     id="layer1">
    <path
       d="m -3109.2858,38.07648 0,-1337.49998 1275,0 1275,0 0,1337.49998 0,1337.50002 -1275,0 -1275,0 0,-1337.50002 z"
       id="path3023"
       style="fill:#fefefe" />
    <path
       d="m 31.695586,1044.1761 c -0.14679,-0.031 -0.15485,-0.039 -0.05,-0.048 0.10239,-0.01 0.09095,-0.02 -0.06327,-0.056 -1.04707,-0.2467 -1.60802,-1.4831 -1.18537,-2.6128 0.218125,-0.583 0.75748,-0.9978 1.40697,-1.0821 0.221055,-0.029 4.29216,-0.048 10.251225,-0.049 7.519288,0 9.893248,-0.016 9.920878,-0.06 0.02,-0.032 3.20428,-17.4823 7.07621,-38.7776 6.30185,-34.65969 7.05415,-38.74497 7.17602,-38.96889 0.17746,-0.32604 0.45142,-0.56874 0.86117,-0.76288 l 0.33117,-0.15691 2.7,-0.0122 c 1.485,-0.007 2.75063,-0.0241 2.8125,-0.0385 0.19279,-0.0449 0.12889,-0.2045 -0.24455,-0.61081 -0.89316,-0.97178 -1.77978,-2.36692 -2.23952,-3.52401 -0.17485,-0.44009 -0.1987,-0.44601 -0.61793,-0.15347 -1.00811,0.70347 -1.89661,0.95992 -3.10754,0.89694 -2.42149,-0.12595 -4.33427,-1.50911 -5.52886,-3.99799 -0.61932,-1.29033 -0.93776,-2.50359 -1.12373,-4.28143 -0.0728,-0.69639 -0.0729,-0.82519 -0.001,-1.47087 0.33638,-3.02392 1.37493,-5.48086 2.94776,-6.97362 0.89266,-0.84722 1.86867,-1.28316 3.00832,-1.34369 2.5464,-0.13524 4.80049,1.29325 6.16923,3.90966 0.14386,0.275 0.29743,0.52058 0.34126,0.54572 0.062,0.0356 0.13847,-0.0199 0.34435,-0.25 l 0.26465,-0.29572 0,-3.60955 c 0,-2.83281 -0.0134,-3.61825 -0.0624,-3.65 -0.0344,-0.0222 -0.535,-0.0517 -1.1125,-0.0654 -1.02467,-0.0244 -1.05688,-0.0284 -1.33513,-0.16502 -0.35619,-0.17491 -0.69776,-0.5475 -0.84792,-0.9249 -0.16197,-0.40711 -0.16197,-1.16305 0,-1.57016 0.15038,-0.37795 0.49181,-0.75018 0.84793,-0.92439 0.27772,-0.13587 0.31237,-0.14015 1.33512,-0.16501 0.5775,-0.014 1.07813,-0.0437 1.1125,-0.066 0.0929,-0.0601 0.0903,-3.19925 -0.003,-3.27644 -0.0446,-0.0371 -0.95588,-0.0587 -2.8875,-0.0686 l -2.82216,-0.0145 -0.28319,-0.13907 c -0.74056,-0.36367 -1.13005,-1.16688 -0.99328,-2.04834 0.11542,-0.74394 0.55648,-1.28049 1.22647,-1.492 0.14615,-0.0462 0.95381,-0.0709 3,-0.0919 l 2.8,-0.0288 0,-1.65 0,-1.65 -1.05,-0.0297 c -1.1476,-0.0324 -1.30081,-0.064 -1.70059,-0.35114 -0.24673,-0.17719 -0.41458,-0.39834 -0.58383,-0.76921 -0.0957,-0.20963 -0.11409,-0.33477 -0.11409,-0.775 0,-0.44023 0.0184,-0.56536 0.11409,-0.775 0.16925,-0.37087 0.3371,-0.59202 0.58383,-0.76921 0.39978,-0.2871 0.55299,-0.31873 1.70059,-0.35114 l 1.05,-0.0296 0.025,-2.85 0.025,-2.85 0.14011,-0.3 c 0.17649,-0.37788 0.43087,-0.64354 0.79252,-0.82764 0.94119,-0.47914 2.17955,-0.14401 2.62078,0.70923 0.18611,0.3599 0.19208,0.4495 0.21942,3.29341 l 0.0272,2.825 1.05,0.0305 c 1.13293,0.033 1.3168,0.0694 1.67327,0.33169 0.26192,0.1927 0.43098,0.40645 0.58996,0.7459 0.12193,0.26036 0.13662,0.34856 0.13598,0.81687 -5e-4,0.43926 -0.0194,0.56583 -0.11479,0.775 -0.16925,0.37087 -0.3371,0.59202 -0.58383,0.76921 -0.39978,0.2871 -0.55299,0.31874 -1.70059,0.35114 l -1.05,0.0296 0,1.65 0,1.65 2.8,0.0279 c 3.07392,0.0307 3.08121,0.0313 3.51167,0.34318 0.70822,0.51303 0.94922,1.63043 0.53599,2.48514 -0.14897,0.30813 -0.53848,0.68544 -0.8618,0.83481 -0.23223,0.10728 -0.27932,0.10918 -3.05812,0.12344 -1.93162,0.01 -2.84286,0.0316 -2.8875,0.0686 -0.093,0.0772 -0.0956,3.21633 -0.003,3.27645 0.0344,0.0223 0.535,0.0519 1.1125,0.066 1.02275,0.0248 1.0574,0.0291 1.33512,0.165 0.35682,0.17456 0.69823,0.54725 0.84682,0.92439 0.16012,0.40645 0.16012,1.16372 0,1.57017 -0.14859,0.37714 -0.49,0.74983 -0.84682,0.92439 -0.27772,0.13586 -0.31237,0.14014 -1.33512,0.165 -0.5775,0.014 -1.07813,0.0437 -1.1125,0.066 -0.0913,0.0591 -0.0909,4.24875 5e-4,4.32451 0.0453,0.0376 0.20241,-0.003 0.5625,-0.14692 1.96481,-0.78308 4.09519,-1.01721 6.29305,-0.69162 5.53549,0.82004 9.84136,5.03887 10.77869,10.56081 0.16173,0.9528 0.21495,1.83937 0.1541,2.56716 -0.2271,2.71629 -1.2272,5.23038 -2.932,7.37061 -0.43589,0.54722 -1.47729,1.58354 -2.00981,2 -1.45015,1.1341 -3.13513,1.95119 -4.79901,2.32716 -0.53948,0.1219 -0.62338,0.17186 -0.58337,0.34742 0.0126,0.0552 3.07227,16.88542 6.7993,37.40044 3.72703,20.515 6.797814,37.3506 6.823964,37.4125 l 0.0476,0.1125 9.888577,10e-4 c 5.96161,10e-4 10.03418,0.02 10.25525,0.049 0.45231,0.059 0.79006,0.2337 1.08555,0.5624 0.65172,0.7248 0.61165,1.9842 -0.0854,2.6842 -0.22821,0.2292 -0.63105,0.448 -0.84183,0.4572 l -0.125,0.01 0.125,0.036 c 0.10598,0.03 0.0878,0.041 -0.11948,0.07 -0.33088,0.047 -86.409259,0.031 -86.630614,-0.016 z m 61.036698,-3.9351 c 0.011,-0.033 -0.0208,-0.094 -0.0708,-0.1349 -0.05,-0.041 -4.01136,-3.2259 -8.80308,-7.0774 -5.18729,-4.1694 -8.75349,-7.0026 -8.81424,-7.0026 -0.0608,0 -3.61083,2.8214 -8.77755,6.976 -4.77154,3.8368 -8.71907,7.0031 -8.77229,7.0364 -0.10963,0.069 -0.16262,0.1746 -0.12087,0.2421 0.046,0.074 35.33405,0.035 35.35886,-0.04 z m -28.29437,-10.5884 c 5.55311,-4.4655 7.50878,-6.0647 7.49768,-6.131 -0.0223,-0.1336 -11.19067,-9.1004 -11.31409,-9.0838 -0.0914,0.012 -0.24813,0.8322 -2.01025,10.5133 -1.05115,5.775 -1.91219,10.5645 -1.91342,10.6433 -0.002,0.123 0.014,0.1402 0.11256,0.1214 0.0631,-0.012 3.49553,-2.7405 7.62752,-6.0632 z m 28.95767,5.9729 c 0,-0.1054 -3.78315,-20.9596 -3.82989,-21.1119 -0.0147,-0.048 -0.0647,-0.087 -0.11103,-0.087 -0.12157,0 -11.28083,8.9825 -11.29927,9.0952 -0.0115,0.07 1.80915,1.5597 7.51686,6.1488 4.14264,3.3308 7.5751,6.056 7.6277,6.056 0.0625,0 0.0956,-0.035 0.0956,-0.1006 z m -18.12,-14.6936 c 0.10725,-0.079 2.79375,-2.2352 5.97,-4.7911 4.40857,-3.5474 5.775,-4.6722 5.775,-4.7536 0,-0.08 -1.51282,-1.4101 -5.95,-5.2334 -3.2725,-2.8198 -5.98375,-5.1271 -6.025,-5.1273 -0.0413,0 -2.7525,2.3063 -6.025,5.1257 -4.50832,3.884 -5.95,5.1524 -5.95,5.2349 0,0.084 1.27798,1.1374 5.675,4.676 5.8333,4.6945 6.23332,5.013 6.29745,5.013 0.0207,0 0.1253,-0.065 0.23255,-0.1442 z m -8.23,-18.0462 c 3.27962,-2.8268 4.98026,-4.32437 4.99043,-4.39462 0.0125,-0.0862 -0.67957,-0.70534 -3.61669,-3.23581 -1.99766,-1.72108 -3.67282,-3.12923 -3.72258,-3.12923 -0.0498,0 -0.10116,0.0281 -0.11423,0.0625 -0.0751,0.19736 -2.69984,14.83176 -2.6728,14.90226 0.018,0.047 0.0616,0.085 0.0968,0.084 0.0353,-5e-4 2.30282,-1.9308 5.03907,-4.2892 z m 21.15,4.1648 c 0,-0.118 -2.62566,-14.64852 -2.68103,-14.83696 -0.0142,-0.0481 -0.068,-0.0875 -0.11981,-0.0875 -0.0524,0 -1.69434,1.37888 -3.70913,3.11498 -2.94634,2.53878 -3.61503,3.13752 -3.61503,3.23687 0,0.0996 0.90785,0.90426 4.975,4.40931 2.73625,2.358 5.01438,4.2877 5.0625,4.2881 0.0603,5e-4 0.0875,-0.038 0.0875,-0.1248 z m -8.9242,-14.6991 c 2.90268,-2.50073 4.1492,-3.60443 4.1492,-3.6738 0,-0.11848 -8.25425,-8.10156 -8.37676,-8.10156 -0.12528,0 -8.37324,7.98069 -8.37324,8.1019 0,0.0733 1.17034,1.11017 4.14833,3.67512 2.28158,1.96514 4.18319,3.57298 4.2258,3.57298 0.0426,0 1.94461,-1.60859 4.22667,-3.57464 z m -9.95649,-11.57536 c 2.02331,-1.9499 2.92738,-2.85313 2.91853,-2.9158 -0.0174,-0.12268 -4.08457,-4.0342 -4.1948,-4.0342 -0.0479,0 -0.10053,0.0217 -0.11691,0.0481 -0.0558,0.0903 -1.77786,9.65856 -1.74722,9.70815 0.0168,0.0272 0.0707,0.0425 0.11979,0.0341 0.0491,-0.008 1.40837,-1.28661 3.02061,-2.84036 z m 14.60175,2.80638 c 0.0271,-0.0439 -1.70105,-9.63356 -1.75049,-9.71356 -0.0145,-0.0236 -0.0663,-0.0428 -0.1151,-0.0428 -0.13236,0 -4.2133,3.9489 -4.1951,4.05936 0.0197,0.11967 5.84196,5.73567 5.94918,5.73845 0.0465,10e-4 0.0967,-0.0174 0.11151,-0.0414 z m -5.69875,-11.39971 c 2.55015,-2.45954 3.07754,-2.9909 3.07679,-3.1 -5e-4,-0.0724 -0.14456,-0.91788 -0.32015,-1.8788 -0.25101,-1.37365 -0.33836,-1.7611 -0.40866,-1.8125 -0.0723,-0.0529 -1.13013,-0.0652 -5.54234,-0.0646 -2.99912,5e-4 -5.48225,0.0194 -5.51806,0.0421 -0.0632,0.0401 -0.70989,3.42215 -0.70989,3.71263 0,0.11179 0.51296,0.62924 3.0875,3.11457 1.95406,1.88634 3.11864,2.97582 3.17231,2.96774 0.0466,-0.007 1.46977,-1.34852 3.1625,-2.9811 z m 4.55269,-10.65753 c 3.78651,-0.34957 6.81638,-2.79093 7.89429,-6.36094 0.6272,-2.07729 0.45662,-4.1572 -0.50838,-6.19875 -1.29584,-2.74146 -3.79677,-4.6414 -6.62795,-5.03518 -0.87573,-0.1218 -2.25448,-0.0486 -3.19574,0.16971 -1.17548,0.27261 -2.49368,0.88683 -3.46045,1.6124 -3.43857,2.58069 -4.45983,6.85182 -2.58036,10.79166 0.75489,1.58243 1.9467,2.92028 3.41297,3.8312 1.50217,0.93322 3.29198,1.35364 5.06562,1.1899 z m -15.58911,-7.22458 c 0.13972,-0.0415 0.39236,-0.16781 0.56142,-0.2807 1.05039,-0.70142 1.81169,-2.68224 1.81363,-4.71886 0.002,-2.11803 -0.70642,-4.28433 -1.64612,-5.0336 -0.39948,-0.31852 -0.54368,-0.36588 -1.11482,-0.36615 -0.48667,-2.5e-4 -0.54954,0.0114 -0.86116,0.159 -1.01416,0.48043 -1.70788,1.77336 -2.00708,3.74075 -0.17629,1.15915 -0.15452,1.86455 0.0961,3.11333 0.35609,1.7745 0.98403,2.91134 1.82884,3.311 0.26662,0.12613 0.37979,0.1506 0.69675,0.15063 0.20813,2e-5 0.49274,-0.0339 0.63246,-0.0754 z m -35.556883,47.8201 c -0.372785,-0.054 -0.850055,-0.2759 -1.218675,-0.5658 -0.493635,-0.3881 -2.590575,-2.65564 -3.88779,-4.20409 -5.387745,-6.43121 -9.477025,-13.83333 -12.015585,-21.74977 -1.73343,-5.40567 -2.71875,-10.91971 -2.952895,-16.525 -0.0386,-0.92366 -0.03865,-0.92413 -0.05441,-0.325 -0.01515,0.57574 -0.01745,0.55956 -0.05748,-0.4 -0.02295,-0.55 -0.02495,-1.77625 -0.0045,-2.725 0.02715,-1.25753 0.04405,-1.5624 0.06227,-1.125 0.02465,0.59101 0.02555,0.58426 0.06308,-0.45 0.15343,-4.23023 0.803725,-8.75029 1.87029,-13 2.49524,-9.94225 7.290075,-19.08095 14.06125,-26.8 0.82556,-0.94113 2.208615,-2.42062 2.65827,-2.84362 0.42121,-0.39625 0.9574,-0.70012 1.34711,-0.76344 0.19262,-0.0313 0.20701,-0.0412 0.1,-0.0686 -0.21274,-0.0545 0.49456,-0.10506 0.775,-0.0554 0.192265,0.034 0.215355,0.0465 0.1,0.0541 -0.11081,0.007 -0.07034,0.0272 0.15491,0.0762 0.986625,0.21465 1.95812,1.12138 2.27675,2.12495 0.146255,0.46066 0.14483,1.16164 -0.003,1.59509 -0.174035,0.50946 -0.386725,0.78689 -1.548035,2.01922 -1.680315,1.78308 -3.021815,3.36409 -4.33712,5.11146 -6.551995,8.70423 -10.546835,18.97424 -11.513835,29.6 -0.289455,3.18066 -0.299095,6.67843 -0.02735,9.925 1.1151,13.32224 6.802745,25.88139 16.10089,35.55309 0.461025,0.47955 0.924915,1.00528 1.030865,1.1683 0.632575,0.97329 0.533305,2.23561 -0.25252,3.21101 -0.484715,0.6017 -1.16576,1.0241 -1.84707,1.1456 -0.4299,0.077 -0.464275,0.077 -0.88025,0.017 z m 85.945999,-0.019 c -0.42512,-0.079 -0.73315,-0.2091 -1.11284,-0.4696 -1.36848,-0.9387 -1.7878,-2.62415 -0.96797,-3.89077 0.1034,-0.15977 0.54639,-0.66336 0.98441,-1.11909 4.1634,-4.33178 7.58707,-9.17304 10.23395,-14.47139 3.5646,-7.1354 5.57813,-14.66542 6.03654,-22.575 0.0705,-1.21622 0.0718,-4.65561 0.002,-5.95 -0.61252,-11.39926 -4.40467,-22.11702 -11.08341,-31.325 -1.53887,-2.12165 -2.99576,-3.86851 -4.93518,-5.91747 -0.58174,-0.6146 -1.14283,-1.2446 -1.24686,-1.4 -0.65422,-0.97724 -0.50703,-2.37498 0.35037,-3.32724 0.44576,-0.49508 1.07784,-0.88528 1.62756,-1.00472 0.22752,-0.0495 0.27087,-0.0703 0.16121,-0.0775 -0.11536,-0.008 -0.0923,-0.0201 0.1,-0.0541 0.28044,-0.0497 0.98774,10e-4 0.775,0.0554 -0.10749,0.0276 -0.0939,0.0371 0.0974,0.0685 0.32144,0.0527 0.80986,0.30089 1.15112,0.58488 0.53495,0.44519 2.63804,2.73342 3.88063,4.22225 4.7166,5.65127 8.38554,11.94689 10.96459,18.81437 3.73329,9.94101 4.86148,20.46391 3.32737,31.03529 -1.82342,12.56497 -7.30963,24.27594 -15.79923,33.72534 -0.9585,1.06685 -2.13306,2.28345 -2.4476,2.53515 -0.38197,0.3057 -0.813,0.4993 -1.25332,0.5629 -0.41353,0.06 -0.40436,0.06 -0.84597,-0.022 z M 43.291176,990.15381 c -0.512085,-0.14126 -0.846125,-0.37342 -1.547255,-1.07534 -1.887125,-1.88925 -3.96105,-4.47045 -5.626265,-7.00243 -5.69677,-8.66203 -8.385465,-18.76 -7.64834,-28.725 0.40607,-5.48952 1.61405,-10.474 3.738235,-15.425 2.23802,-5.21634 5.688665,-10.38875 9.46087,-14.18155 0.701665,-0.70549 0.84915,-0.82921 1.177165,-0.98746 1.06167,-0.5122 2.288958,-0.24893 3.199998,0.68644 0.51397,0.5277 0.82567,1.18423 0.88191,1.85757 0.0396,0.47356 -0.0425,0.87209 -0.27796,1.35079 -0.16429,0.33393 -0.31577,0.52578 -0.908,1.15 -2.484678,2.6189 -4.324693,5.063 -6.116233,8.12421 -0.616635,1.05364 -1.749635,3.31382 -2.243265,4.475 -2.747245,6.46243 -3.77187,13.26442 -3.031555,20.125 0.83396,7.72839 3.751655,14.96331 8.48904,21.05 0.933075,1.19883 1.533335,1.89545 2.738213,3.17774 0.82994,0.88327 1.07194,1.21173 1.22631,1.66446 0.15795,0.46324 0.16003,1.14454 0.005,1.63742 -0.30108,0.95718 -1.22814,1.84315 -2.191068,2.09396 -0.348265,0.0907 -1.005635,0.0928 -1.326795,0.004 z m 62.160594,-0.007 c -0.47229,-0.12703 -0.95283,-0.41695 -1.36012,-0.82058 -0.95685,-0.94829 -1.19896,-2.14006 -0.65889,-3.24344 0.14638,-0.29905 0.33056,-0.52831 0.98416,-1.225 0.97897,-1.04352 1.69226,-1.85459 2.35872,-2.6821 5.40021,-6.70505 8.56699,-14.744 9.11948,-23.15 0.0671,-1.02082 0.0678,-3.90942 10e-4,-4.94999 -0.52266,-8.16276 -3.33374,-15.83033 -8.17222,-22.29071 -1.07547,-1.43597 -2.07927,-2.618 -3.42313,-4.03089 -0.62025,-0.65211 -0.8331,-0.94914 -0.99761,-1.39216 -0.45408,-1.22278 0.15226,-2.69723 1.42425,-3.46337 0.4578,-0.27574 0.8633,-0.38549 1.41805,-0.3838 0.89797,0.003 1.30922,0.22867 2.3421,1.28666 2.29988,2.35582 4.7322,5.52068 6.49359,8.44926 5.01057,8.33089 7.30387,17.68219 6.64013,27.07623 -0.55051,7.79147 -2.91385,15.1323 -6.9929,21.72084 -1.72962,2.79371 -4.14301,5.88103 -6.25791,8.00541 -0.73717,0.74047 -1.05306,0.95913 -1.59343,1.10302 -0.32974,0.0878 -0.98123,0.0832 -1.32539,-0.009 z m -50.227666,-11.8977 c -0.58956,-0.16179 -1.0011,-0.47027 -1.86349,-1.3968 -4.39103,-4.7176 -7.14688,-10.79234 -7.83765,-17.27662 -0.8634,-8.10467 1.57744,-16.2282 6.74584,-22.4513 0.67176,-0.80886 1.6223,-1.83922 1.92678,-2.08861 0.15125,-0.12388 0.44146,-0.30466 0.64491,-0.40173 0.33594,-0.16029 0.4193,-0.17853 0.908,-0.19866 0.63802,-0.0263 1.03107,0.0699 1.5347,0.37557 0.95126,0.57735 1.55935,1.59627 1.56165,2.61673 0.002,0.72779 -0.25502,1.27871 -0.9489,2.03672 -0.78596,0.85861 -1.33607,1.50343 -1.8225,2.13628 -2.39658,3.11797 -4.01786,6.86783 -4.67183,10.80548 -0.24291,1.4626 -0.28105,2.00594 -0.28042,3.99452 5e-4,1.98452 0.0293,2.38648 0.27856,3.9 0.77067,4.68038 2.86369,9.00139 6.03247,12.4539 0.81336,0.88619 0.98682,1.10003 1.13072,1.39391 0.53783,1.09839 0.29838,2.31298 -0.6414,3.25342 -0.45163,0.45194 -0.91243,0.72463 -1.43111,0.8469 -0.38845,0.0916 -0.93326,0.0917 -1.26633,5e-4 z m 38.42148,0.0222 c -0.12375,-0.0238 -0.41597,-0.13763 -0.64938,-0.25283 -0.60037,-0.29633 -1.1578,-0.85557 -1.44099,-1.44566 -0.24714,-0.51498 -0.33226,-0.9271 -0.29684,-1.4371 0.0505,-0.72743 0.28232,-1.171 1.03731,-1.98509 2.29907,-2.47904 3.84996,-4.90687 5.01627,-7.85268 0.782589,-1.97665 1.280019,-3.98293 1.567529,-6.32231 0.12815,-1.04276 0.12809,-4.15809 0,-5.2 -0.45639,-3.70938 -1.486389,-6.80336 -3.265539,-9.80925 -0.93061,-1.57228 -1.84588,-2.77364 -3.48194,-4.57031 -0.63109,-0.69305 -0.88717,-1.26226 -0.88558,-1.96845 0.003,-1.2721 0.95884,-2.52744 2.21626,-2.91033 0.28451,-0.0866 0.43349,-0.10037 0.88621,-0.0817 0.52029,0.0214 0.56332,0.0319 0.97911,0.23793 0.48586,0.24075 0.89429,0.61789 1.87059,1.72726 1.038329,1.17987 1.725769,2.08201 2.611459,3.42709 3.801747,5.7736 5.489987,12.77133 4.757957,19.72169 -0.66608,6.32417 -3.24854,12.16255 -7.475766,16.90108 -1.09962,1.23264 -1.59181,1.62635 -2.25313,1.80237 -0.29341,0.0781 -0.83975,0.0865 -1.19343,0.0183 z"
       id="path3009"
       style="fill:#6d6d6d" />
  </g>
</svg>
