<?xml version="1.0" encoding="UTF-8" standalone="no"?>
<!-- Created with Inkscape (http://www.inkscape.org/) -->

<svg
   xmlns:dc="http://purl.org/dc/elements/1.1/"
   xmlns:cc="http://creativecommons.org/ns#"
   xmlns:rdf="http://www.w3.org/1999/02/22-rdf-syntax-ns#"
   xmlns:svg="http://www.w3.org/2000/svg"
   xmlns="http://www.w3.org/2000/svg"
   version="1.1"
   width="1684"
   height="1317"
   id="svg3082">

  <g
     id="layer1"
     style="display:inline">
    <path
       d="m 129.232,353.67899 51.79146,0 0,676.24841 14.3043,0 0,15.0228 1216.85254,0 0,48.8295 -1282.9483,0 z"
       id="path3116"
       style="fill:#616161;fill-opacity:1;stroke:#000000;stroke-width:1px;stroke-linecap:butt;stroke-linejoin:miter;stroke-opacity:1" />
    <text
       x="1103.5"
       y="645.5"
       id="text4126"
       xml:space="preserve"
       style="font-size:20px;font-style:normal;font-weight:normal;line-height:125%;letter-spacing:0px;word-spacing:0px;fill:#000000;fill-opacity:1;stroke:none;font-family:Sans"><tspan
         x="1103.5"
         y="645.5"
         id="tspan4128" /></text>
    <path
       d="m 195.79936,354.04468 849.00484,-131.9874 0,808.23582 -849.00484,0 z"
       id="path4204"
       style="fill:#f2f2f2;fill-opacity:1;stroke:none" />
  </g>
  <g
     id="layer2"
     style="display:inline">
    <rect
       width="588.94781"
       height="59.742397"
       x="-1030.1759"
       y="1338.1895"
       transform="matrix(0,-1,1,0,0,0)"
       id="rect3896-6"
       style="fill:#555555;fill-opacity:1;stroke:#000000;stroke-width:1.05413377;stroke-linecap:round;stroke-linejoin:miter;stroke-miterlimit:4;stroke-opacity:1;stroke-dasharray:none" />
    <rect
       width="248.18973"
       height="328.69495"
       x="708.90253"
       y="371.90256"
       id="rect4120"
       style="fill:none;stroke:#000000;stroke-width:0.80515385;stroke-linecap:round;stroke-linejoin:miter;stroke-miterlimit:4;stroke-opacity:1;stroke-dasharray:9.66184622, 9.66184622;stroke-dashoffset:0;display:inline" />
    <text
       x="767.5"
       y="694"
       id="text4122"
       xml:space="preserve"
       style="font-size:20px;font-style:normal;font-weight:normal;line-height:125%;letter-spacing:0px;word-spacing:0px;fill:#000000;fill-opacity:1;stroke:none;display:inline;font-family:Sans"><tspan
         x="767.5"
         y="694"
         id="tspan4124">Camera Zone</tspan></text>
    <path
       d="m 709.05133,371.24467 248.01771,0.17678 -0.17678,38.00699 87.81534,0 0,-185.61553 -335.65627,51.26524 z"
       id="path4234"
       style="fill:#f2f2f2;fill-opacity:1;stroke:none" />
    <path
       d="m 1057.3281,219.90521 0,811.65329 340.6974,-1.5393 0.375,-862.76521 z"
       id="path4069"
       style="fill:#f2f2f2;fill-opacity:1;stroke:none;display:inline" />
  </g>
  <g
     id="layer4"
     style="display:inline">
    <path
       d="m 960.37256,459.40665 0,55.46845 -133.62216,0 0,39.87479 133.62216,0 0.23919,54.34346 84.44905,0 -0.2392,-149.6867 z"
       id="rect3896-8-7"
       style="fill:#e2b46c;fill-opacity:1;stroke:#000000;stroke-width:1.00080621;stroke-linecap:round;stroke-linejoin:miter;stroke-miterlimit:4;stroke-opacity:1;stroke-dasharray:none;display:inline" />
    <rect
       width="184.28403"
       height="168.80534"
       x="-1030.6101"
       y="1057.9851"
       transform="matrix(0,-1,1,0,0,0)"
       id="rect3896"
       style="fill:#e2b46c;fill-opacity:1;stroke:#000000;stroke-width:0.99118108;stroke-linecap:round;stroke-linejoin:miter;stroke-miterlimit:4;stroke-opacity:1;stroke-dasharray:none;display:inline" />
    <rect
       width="183.59837"
       height="168.80719"
       x="-843.79919"
       y="1058.0339"
       transform="matrix(0,-1,1,0,0,0)"
       id="rect3896-3"
       style="fill:#e2b46c;fill-opacity:1;stroke:#000000;stroke-width:0.98934084;stroke-linecap:round;stroke-linejoin:miter;stroke-miterlimit:4;stroke-opacity:1;stroke-dasharray:none;display:inline" />
    <rect
       width="183.59837"
       height="168.80719"
       x="-657.79919"
       y="1058.0964"
       transform="matrix(0,-1,1,0,0,0)"
       id="rect3896-8"
       style="fill:#e2b46c;fill-opacity:1;stroke:#000000;stroke-width:0.98934084;stroke-linecap:round;stroke-linejoin:miter;stroke-miterlimit:4;stroke-opacity:1;stroke-dasharray:none;display:inline" />
    <text
       x="1099.75"
       y="652.31738"
       id="text4130"
       xml:space="preserve"
       style="font-size:20px;font-style:normal;font-weight:normal;line-height:125%;letter-spacing:0px;word-spacing:0px;fill:#000000;fill-opacity:1;stroke:none;display:inline;font-family:Sans"><tspan
         x="1099.75"
         y="652.31738"
         id="tspan4132">Station 1</tspan></text>
    <text
       x="1099.75"
       y="838.52344"
       id="text4130-7"
       xml:space="preserve"
       style="font-size:20px;font-style:normal;font-weight:normal;line-height:125%;letter-spacing:0px;word-spacing:0px;fill:#000000;fill-opacity:1;stroke:none;display:inline;font-family:Sans"><tspan
         x="1099.75"
         y="838.52344"
         id="tspan4132-4">Station 2</tspan></text>
    <text
       x="1099.75"
       y="1024.0234"
       id="text4130-75"
       xml:space="preserve"
       style="font-size:20px;font-style:normal;font-weight:normal;line-height:125%;letter-spacing:0px;word-spacing:0px;fill:#000000;fill-opacity:1;stroke:none;display:inline;font-family:Sans"><tspan
         x="1099.75"
         y="1024.0234"
         id="tspan4132-1">Station 3</tspan></text>
    <text
       x="984.90137"
       y="604.27344"
       id="text4130-3"
       xml:space="preserve"
       style="font-size:20px;font-style:normal;font-weight:normal;line-height:125%;letter-spacing:0px;word-spacing:0px;fill:#000000;fill-opacity:1;stroke:none;display:inline;font-family:Sans"><tspan
         x="984.90137"
         y="604.27344"
         id="tspan4132-49">Box</tspan></text>
  </g>
  <g
     id="layer3"
     style="display:inline">
    <text
       x="1253.75"
       y="230.5"
       id="text4175"
       xml:space="preserve"
       style="font-size:20px;font-style:normal;font-weight:normal;line-height:125%;letter-spacing:0px;word-spacing:0px;fill:#000000;fill-opacity:1;stroke:none;font-family:Sans"><tspan
         x="1253.75"
         y="230.5"
         id="tspan4177">Track Zone 1</tspan></text>
    <text
       x="899.79297"
       y="269.20605"
       id="text4175-0"
       xml:space="preserve"
       style="font-size:20px;font-style:normal;font-weight:normal;line-height:125%;letter-spacing:0px;word-spacing:0px;fill:#000000;fill-opacity:1;stroke:none;display:inline;font-family:Sans"><tspan
         x="899.79297"
         y="269.20605"
         id="tspan4200">Track Zone 2</tspan></text>
    <path
       d="m 1044.9857,224.12928 13.3178,-2.125 0,29.24588 -13.3178,0.004 0,-26.25 0,-0.5"
       id="path3894"
       style="fill:#7b7b7b;fill-opacity:1;stroke:#000000;stroke-width:1px;stroke-linecap:butt;stroke-linejoin:miter;stroke-opacity:1" />
    <rect
       width="86.265663"
       height="16.593809"
       x="959.01544"
       y="409.55652"
       id="rect5872"
       style="fill:#b3b3b3;fill-opacity:1;fill-rule:nonzero;stroke:#000000;stroke-width:1.34960365;stroke-miterlimit:4;stroke-opacity:1;stroke-dasharray:none" />
    <rect
       width="86.265663"
       height="16.593809"
       x="958.99634"
       y="442.58905"
       id="rect5872-7"
       style="fill:#b3b3b3;fill-opacity:1;fill-rule:nonzero;stroke:#000000;stroke-width:1.34960365;stroke-miterlimit:4;stroke-opacity:1;stroke-dasharray:none" />
    <rect
       width="86.265663"
       height="16.593809"
       x="958.98828"
       y="426.04633"
       id="rect5872-9"
       style="fill:#b3b3b3;fill-opacity:1;fill-rule:nonzero;stroke:#000000;stroke-width:1.34960365;stroke-miterlimit:4;stroke-opacity:1;stroke-dasharray:none" />
  </g>
  <g
     id="layer5">
    <path
       d="m 897.09803,1044.8628 0,-14.3043 -69.0979,0 0,14.3043 69.0979,0 z"
       id="path5419-47"
       style="fill:#bababa;fill-opacity:1;stroke:#000000;stroke-width:1.01866448px;stroke-linecap:butt;stroke-linejoin:miter;stroke-opacity:1;display:inline" />
    <path
       d="m 520.12805,1044.8722 0,-14.2515 -76.86969,0 0,14.2515 76.86969,0 z"
       id="path5419-9-0"
       style="fill:#bababa;fill-opacity:1;stroke:#000000;stroke-width:1.0724411px;stroke-linecap:butt;stroke-linejoin:miter;stroke-opacity:1;display:inline" />
    <path
       d="m 673.95289,1044.8795 0,-14.2662 -74.66812,0 0,14.2662 74.66812,0 z"
       id="path5419-8-5"
       style="fill:#bababa;fill-opacity:1;stroke:#000000;stroke-width:1.05751514px;stroke-linecap:butt;stroke-linejoin:miter;stroke-opacity:1;display:inline" />
    <path
       d="m 827.94118,1044.8264 0,-14.2471 -77.5437,0 0,14.2471 77.5437,0 z"
       id="path5419-5-4"
       style="fill:#bababa;fill-opacity:1;stroke:#000000;stroke-width:1.0769645px;stroke-linecap:butt;stroke-linejoin:miter;stroke-opacity:1;display:inline" />
    <path
       d="m 750.35734,1044.8732 0,-14.2536 -76.55518,0 0,14.2536 76.55518,0 z"
       id="path5419-4-3"
       style="fill:#bababa;fill-opacity:1;stroke:#000000;stroke-width:1.07032275px;stroke-linecap:butt;stroke-linejoin:miter;stroke-opacity:1;display:inline" />
    <path
       d="m 443.20024,1044.8714 0,-14.2741 -73.48122,0 0,14.2741 73.48122,0 z"
       id="path5419-7-82"
       style="fill:#bababa;fill-opacity:1;stroke:#000000;stroke-width:1.04937029px;stroke-linecap:butt;stroke-linejoin:miter;stroke-opacity:1;display:inline" />
    <path
       d="m 599.33569,1044.8642 0,-14.2356 -79.29619,0 0,14.2356 79.29619,0 z"
       id="path5419-9-4-8"
       style="fill:#bababa;fill-opacity:1;stroke:#000000;stroke-width:1.08862853px;stroke-linecap:butt;stroke-linejoin:miter;stroke-opacity:1;display:inline" />
    <path
       d="m 210.58946,1044.8053 0,-14.2111 -15.16596,0 0,14.2111 15.16596,0 z"
       id="path5419-7-8-0"
       style="fill:#bababa;fill-opacity:1;stroke:#000000;stroke-width:1.09758127;stroke-linecap:butt;stroke-linejoin:miter;stroke-miterlimit:4;stroke-opacity:1;stroke-dasharray:none;display:inline" />
    <path
       d="m 292.98954,1044.8188 0,-14.2163 -82.31416,0 0,14.2163 82.31416,0 z"
       id="path5419-7-4-9"
       style="fill:#bababa;fill-opacity:1;stroke:#000000;stroke-width:1.10839581px;stroke-linecap:butt;stroke-linejoin:miter;stroke-opacity:1;display:inline" />
    <path
       d="m 369.7516,1044.8367 0,-14.2521 -76.78522,0 0,14.2521 76.78522,0 z"
       id="path5419-7-7-0"
       style="fill:#bababa;fill-opacity:1;stroke:#000000;stroke-width:1.07187259px;stroke-linecap:butt;stroke-linejoin:miter;stroke-opacity:1;display:inline" />
    <path
       d="m 966.07702,1044.8599 0,-14.3043 -69.0979,0 0,14.3043 69.0979,0 z"
       id="path5419-47-4"
       style="fill:#bababa;fill-opacity:1;stroke:#000000;stroke-width:1.01866448px;stroke-linecap:butt;stroke-linejoin:miter;stroke-opacity:1;display:inline" />
    <path
       d="m 1045.3846,1044.8385 0,-14.2356 -79.29624,0 0,14.2356 79.29624,0 z"
       id="path5419-9-4-8-1"
       style="fill:#bababa;fill-opacity:1;stroke:#000000;stroke-width:1.08862853px;stroke-linecap:butt;stroke-linejoin:miter;stroke-opacity:1;display:inline" />
    <path
       d="m 1343.1921,1044.8807 0,-14.3043 -69.0979,0 0,14.3043 69.0979,0 z"
       id="path5419-47-3"
       style="fill:#bababa;fill-opacity:1;stroke:#000000;stroke-width:1.01866448px;stroke-linecap:butt;stroke-linejoin:miter;stroke-opacity:1;display:inline" />
    <path
       d="m 1120.0469,1044.8974 0,-14.2662 -74.668,0 0,14.2662 74.668,0 z"
       id="path5419-8-5-9"
       style="fill:#bababa;fill-opacity:1;stroke:#000000;stroke-width:1.05751514px;stroke-linecap:butt;stroke-linejoin:miter;stroke-opacity:1;display:inline" />
    <path
       d="m 1274.0352,1044.8443 0,-14.2471 -77.5436,0 0,14.2471 77.5436,0 z"
       id="path5419-5-4-0"
       style="fill:#bababa;fill-opacity:1;stroke:#000000;stroke-width:1.0769645px;stroke-linecap:butt;stroke-linejoin:miter;stroke-opacity:1;display:inline" />
    <path
       d="m 1196.4514,1044.8911 0,-14.2536 -76.5552,0 0,14.2536 76.5552,0 z"
       id="path5419-4-3-8"
       style="fill:#bababa;fill-opacity:1;stroke:#000000;stroke-width:1.07032275px;stroke-linecap:butt;stroke-linejoin:miter;stroke-opacity:1;display:inline" />
    <path
       d="m 1412.1711,1044.8778 0,-14.3043 -69.0979,0 0,14.3043 69.0979,0 z"
       id="path5419-47-4-3"
       style="fill:#bababa;fill-opacity:1;stroke:#000000;stroke-width:1.01866448px;stroke-linecap:butt;stroke-linejoin:miter;stroke-opacity:1;display:inline" />
    <path
       d="m 998.82197,409.41166 -0.0388,28.27332 -5.21491,-1.98873 8.48524,18.29638 0.1272,-44.58097 z"
       id="path3085"
       style="fill:#000000;fill-opacity:1;stroke:#000000;stroke-width:1px;stroke-linecap:round;stroke-linejoin:round;stroke-opacity:1" />
    <rect
       width="37.668434"
       height="39.06356"
       x="449.23093"
       y="401.7966"
       id="rect5752"
       style="fill:#2b2b2b;fill-opacity:1;fill-rule:nonzero;stroke:#000000;stroke-width:1.08800006;stroke-miterlimit:4;stroke-opacity:1;stroke-dasharray:none;display:inline" />
    <rect
       width="37.668434"
       height="39.06356"
       x="195.49219"
       y="401.97101"
       id="rect5752-4"
       style="fill:#2b2b2b;fill-opacity:1;fill-rule:nonzero;stroke:#000000;stroke-width:1.08800006;stroke-miterlimit:4;stroke-opacity:1;stroke-dasharray:none;display:inline" />
    <rect
       width="37.668434"
       height="39.06356"
       x="920.68738"
       y="401.59943"
       id="rect5752-2"
       style="fill:#2b2b2b;fill-opacity:1;fill-rule:nonzero;stroke:#000000;stroke-width:1.08800006;stroke-miterlimit:4;stroke-opacity:1;stroke-dasharray:none;display:inline" />
    <rect
       width="37.668434"
       height="39.06356"
       x="920.56409"
       y="991.15875"
       id="rect5752-3"
       style="fill:#2b2b2b;fill-opacity:1;fill-rule:nonzero;stroke:#000000;stroke-width:1.08800006;stroke-miterlimit:4;stroke-opacity:1;stroke-dasharray:none;display:inline" />
    <rect
       width="37.668434"
       height="39.06356"
       x="451.48151"
       y="991.4054"
       id="rect5752-1"
       style="fill:#2b2b2b;fill-opacity:1;fill-rule:nonzero;stroke:#000000;stroke-width:1.08800006;stroke-miterlimit:4;stroke-opacity:1;stroke-dasharray:none;display:inline" />
    <rect
       width="37.668434"
       height="39.06356"
       x="195.36139"
       y="991.56488"
       id="rect5752-8"
       style="fill:#2b2b2b;fill-opacity:1;fill-rule:nonzero;stroke:#000000;stroke-width:1.08800006;stroke-miterlimit:4;stroke-opacity:1;stroke-dasharray:none;display:inline" />
    <path
       d="m 195.32776,353.67899 -14.3043,0 0,66.58901 14.3043,0 0,-66.58901 z"
       id="path5419"
       style="fill:#bababa;fill-opacity:1;stroke:#000000;stroke-width:1px;stroke-linecap:butt;stroke-linejoin:miter;stroke-opacity:1" />
    <path
       d="m 195.2913,420.32481 -14.24706,0 0,74.72815 14.24706,0 0,-74.72815 z"
       id="path5419-5"
       style="fill:#bababa;fill-opacity:1;stroke:#000000;stroke-width:1.0572319px;stroke-linecap:butt;stroke-linejoin:miter;stroke-opacity:1" />











    <path
       d="m 195.33815,495.09165 -14.25358,0 0,73.77552 14.25358,0 0,-73.77552 z"
       id="path5419-4"
       style="fill:#bababa;fill-opacity:1;stroke:#000000;stroke-width:1.05071187px;stroke-linecap:butt;stroke-linejoin:miter;stroke-opacity:1" />
    <path
       d="m 195.33713,716.9615 -14.2515,0 0,74.07862 14.2515,0 0,-74.07862 z"
       id="path5419-9"
       style="fill:#bababa;fill-opacity:1;stroke:#000000;stroke-width:1.05279136px;stroke-linecap:butt;stroke-linejoin:miter;stroke-opacity:1" />
    <path
       d="m 195.34445,568.72191 -14.26616,0 0,71.95699 14.26616,0 0,-71.95699 z"
       id="path5419-8"
       style="fill:#bababa;fill-opacity:1;stroke:#000000;stroke-width:1.03813887px;stroke-linecap:butt;stroke-linejoin:miter;stroke-opacity:1" />
    <path
       d="m 195.32918,640.62983 -14.23562,0 0,76.41701 14.23562,0 0,-76.41701 z"
       id="path5419-9-4"
       style="fill:#bababa;fill-opacity:1;stroke:#000000;stroke-width:1.06868219px;stroke-linecap:butt;stroke-linejoin:miter;stroke-opacity:1" />
    <path
       d="m 195.3364,791.09613 -14.27416,0 0,70.81317 14.27416,0 0,-70.81317 z"
       id="path5419-7"
       style="fill:#bababa;fill-opacity:1;stroke:#000000;stroke-width:1.03014326px;stroke-linecap:butt;stroke-linejoin:miter;stroke-opacity:1" />
    <path
       d="m 195.28371,935.8528 -14.21622,0 0,79.3254 14.21622,0 0,-79.3254 z"
       id="path5419-7-4"
       style="fill:#bababa;fill-opacity:1;stroke:#000000;stroke-width:1.08808732px;stroke-linecap:butt;stroke-linejoin:miter;stroke-opacity:1" />
    <path
       d="m 195.30164,861.87791 -14.25206,0 0,73.99721 14.25206,0 0,-73.99721 z"
       id="path5419-7-7"
       style="fill:#bababa;fill-opacity:1;stroke:#000000;stroke-width:1.05223322px;stroke-linecap:butt;stroke-linejoin:miter;stroke-opacity:1" />
    <path
       d="m 195.27026,1015.261 -14.21112,0 0,14.6153 14.21112,0 0,-14.6153 z"
       id="path5419-7-8"
       style="fill:#bababa;fill-opacity:1;stroke:#000000;stroke-width:1.0774709;stroke-linecap:butt;stroke-linejoin:miter;stroke-miterlimit:4;stroke-opacity:1;stroke-dasharray:none" />
    <path
       d="m 1191.4749,188.193 2.7401,12.9041 75.4981,-13.66493 -1.3514,-10.24412 z"
       id="path4067"
       style="fill:#e1e1e1;fill-opacity:1;stroke:none" />
    <rect
       width="13.3178"
       height="132.61568"
       x="1044.7076"
       y="251.87621"
       id="rect4047"
       style="fill:#e1e1e1;fill-opacity:1;stroke:none" />
    <path
       d="m 195.71839,353.66487 998.42231,-152.42899 -2.75,-13.057 -1004.00007,152.807 2.25,12.67899 6.07776,0"
       id="path5870"
       style="fill:#2b2b2b;fill-opacity:1;stroke:#000000;stroke-width:1px;stroke-linecap:butt;stroke-linejoin:miter;stroke-opacity:1;display:inline" />
    <path
       d="m 1412.2188,153.21875 -143.5626,23.21875 1.5,11.0625 128,-19.375 0,233.84375 -10.9687,0 0,39.0625 10.9687,0 0,550.625 -11.7187,0 0,39.06255 37.6563,0 0,-39.06255 -11.875,0 0,-550.625 12.625,0 0,-39.0625 -12.625,0 0,-248.75 z"
       id="path5824"
       style="fill:#2b2b2b;fill-opacity:1;stroke:#000000;stroke-width:1px;stroke-linecap:butt;stroke-linejoin:miter;stroke-opacity:1;display:inline" />
    <path
       d="m 1058.2149,1030.6221 -13.3172,0 0,-645.67682 13.3172,0 z"
       id="path3884"
       style="fill:#7b7b7b;fill-opacity:1;stroke:#000000;stroke-width:1.00055981px;stroke-linecap:butt;stroke-linejoin:miter;stroke-opacity:1;display:inline" />
    <text
       x="325.26913"
       y="737.87952"
       id="text4037"
       xml:space="preserve"
       style="font-size:40px;font-style:normal;font-weight:normal;line-height:125%;letter-spacing:0px;word-spacing:0px;fill:#000000;fill-opacity:1;stroke:none;font-family:Sans"><tspan
         x="325.26913"
         y="737.87952"
         id="tspan4039">RoboLab</tspan></text>
  </g>
</svg>
